<mxfile host="app.diagrams.net" agent="Mozilla/5.0 (Windows NT 10.0; Win64; x64) AppleWebKit/537.36 (KHTML, like Gecko) Chrome/139.0.0.0 Safari/537.36" version="28.1.1">
  <diagram name="Página-1" id="HGQv8hsR2gkRIoIq1uWf">
    <mxGraphModel dx="1367" dy="1152" grid="1" gridSize="10" guides="1" tooltips="1" connect="1" arrows="1" fold="1" page="1" pageScale="1" pageWidth="827" pageHeight="1169" math="0" shadow="0">
      <root>
        <mxCell id="0" />
        <mxCell id="1" parent="0" />
        <mxCell id="XQCfGJK_gv0JmEeynuYQ-101" value="Modulo Control de Transporte" style="swimlane;horizontal=0;whiteSpace=wrap;html=1;" vertex="1" parent="1">
          <mxGeometry x="850" y="20" width="1730" height="1940" as="geometry">
            <mxRectangle x="10" y="50" width="40" height="190" as="alternateBounds" />
          </mxGeometry>
        </mxCell>
        <mxCell id="XQCfGJK_gv0JmEeynuYQ-239" style="edgeStyle=orthogonalEdgeStyle;rounded=1;orthogonalLoop=1;jettySize=auto;html=1;exitX=0.5;exitY=0;exitDx=0;exitDy=0;entryX=1;entryY=0.5;entryDx=0;entryDy=0;entryPerimeter=0;curved=0;dashed=1;" edge="1" parent="XQCfGJK_gv0JmEeynuYQ-101" source="XQCfGJK_gv0JmEeynuYQ-227" target="XQCfGJK_gv0JmEeynuYQ-208">
          <mxGeometry relative="1" as="geometry">
            <Array as="points">
              <mxPoint x="1570" y="980" />
              <mxPoint x="1530" y="980" />
              <mxPoint x="1530" y="830" />
              <mxPoint x="1460" y="830" />
              <mxPoint x="1460" y="770" />
            </Array>
          </mxGeometry>
        </mxCell>
        <mxCell id="XQCfGJK_gv0JmEeynuYQ-223" style="edgeStyle=orthogonalEdgeStyle;rounded=1;orthogonalLoop=1;jettySize=auto;html=1;exitX=0.5;exitY=0;exitDx=0;exitDy=0;curved=0;dashed=1;" edge="1" parent="XQCfGJK_gv0JmEeynuYQ-101" source="XQCfGJK_gv0JmEeynuYQ-217" target="XQCfGJK_gv0JmEeynuYQ-190">
          <mxGeometry relative="1" as="geometry">
            <Array as="points">
              <mxPoint x="980" y="450" />
              <mxPoint x="729" y="450" />
            </Array>
          </mxGeometry>
        </mxCell>
        <mxCell id="XQCfGJK_gv0JmEeynuYQ-102" value="" style="rounded=0;whiteSpace=wrap;html=1;" vertex="1" parent="XQCfGJK_gv0JmEeynuYQ-101">
          <mxGeometry x="70" y="510" width="150" height="110" as="geometry" />
        </mxCell>
        <mxCell id="XQCfGJK_gv0JmEeynuYQ-103" value="" style="rounded=0;whiteSpace=wrap;html=1;" vertex="1" parent="XQCfGJK_gv0JmEeynuYQ-101">
          <mxGeometry x="70" y="290" width="150" height="110" as="geometry" />
        </mxCell>
        <mxCell id="XQCfGJK_gv0JmEeynuYQ-104" value="Tramitador" style="shape=umlActor;verticalLabelPosition=bottom;verticalAlign=top;html=1;outlineConnect=0;fillColor=#dae8fc;strokeColor=#6c8ebf;" vertex="1" parent="XQCfGJK_gv0JmEeynuYQ-101">
          <mxGeometry x="130" y="310" width="30" height="60" as="geometry" />
        </mxCell>
        <mxCell id="XQCfGJK_gv0JmEeynuYQ-105" value="Entidades del Flujo de Proceso" style="rounded=0;whiteSpace=wrap;html=1;" vertex="1" parent="XQCfGJK_gv0JmEeynuYQ-101">
          <mxGeometry x="70" y="250" width="150" height="40" as="geometry" />
        </mxCell>
        <mxCell id="XQCfGJK_gv0JmEeynuYQ-145" style="edgeStyle=orthogonalEdgeStyle;rounded=1;orthogonalLoop=1;jettySize=auto;html=1;exitX=1;exitY=0.5;exitDx=0;exitDy=0;entryX=0;entryY=0.5;entryDx=0;entryDy=0;curved=0;" edge="1" parent="XQCfGJK_gv0JmEeynuYQ-101" source="XQCfGJK_gv0JmEeynuYQ-146" target="XQCfGJK_gv0JmEeynuYQ-161">
          <mxGeometry relative="1" as="geometry" />
        </mxCell>
        <mxCell id="XQCfGJK_gv0JmEeynuYQ-146" value="&lt;u&gt;&lt;b&gt;CREA REGISTRO&lt;/b&gt;&lt;/u&gt; de Instrucción de Embarque en Control de Transporte" style="rounded=0;whiteSpace=wrap;html=1;fillColor=#cce5ff;strokeColor=#36393d;" vertex="1" parent="XQCfGJK_gv0JmEeynuYQ-101">
          <mxGeometry x="475" y="187.5" width="160" height="75" as="geometry" />
        </mxCell>
        <mxCell id="XQCfGJK_gv0JmEeynuYQ-147" value="&lt;b style=&quot;text-decoration-line: underline;&quot;&gt;SELECCIONA&lt;/b&gt;&amp;nbsp;&lt;div&gt;el tipo de Previo que se efectuo&lt;/div&gt;" style="rhombus;whiteSpace=wrap;html=1;fillColor=#dae8fc;strokeColor=#6c8ebf;" vertex="1" parent="XQCfGJK_gv0JmEeynuYQ-101">
          <mxGeometry x="881.5" y="165" width="163" height="120" as="geometry" />
        </mxCell>
        <mxCell id="XQCfGJK_gv0JmEeynuYQ-148" style="edgeStyle=orthogonalEdgeStyle;rounded=0;orthogonalLoop=1;jettySize=auto;html=1;exitX=1;exitY=0.5;exitDx=0;exitDy=0;" edge="1" parent="XQCfGJK_gv0JmEeynuYQ-101" source="XQCfGJK_gv0JmEeynuYQ-172" target="XQCfGJK_gv0JmEeynuYQ-168">
          <mxGeometry relative="1" as="geometry" />
        </mxCell>
        <mxCell id="XQCfGJK_gv0JmEeynuYQ-149" style="edgeStyle=orthogonalEdgeStyle;rounded=1;orthogonalLoop=1;jettySize=auto;html=1;exitX=1;exitY=0.5;exitDx=0;exitDy=0;entryX=0;entryY=0.5;entryDx=0;entryDy=0;curved=0;" edge="1" parent="XQCfGJK_gv0JmEeynuYQ-101" source="XQCfGJK_gv0JmEeynuYQ-147" target="XQCfGJK_gv0JmEeynuYQ-172">
          <mxGeometry relative="1" as="geometry">
            <mxPoint x="924.5" y="122.5" as="targetPoint" />
          </mxGeometry>
        </mxCell>
        <mxCell id="XQCfGJK_gv0JmEeynuYQ-150" value="" style="rounded=0;whiteSpace=wrap;html=1;" vertex="1" parent="XQCfGJK_gv0JmEeynuYQ-101">
          <mxGeometry x="70" y="400" width="150" height="110" as="geometry" />
        </mxCell>
        <mxCell id="XQCfGJK_gv0JmEeynuYQ-151" value="Jefe de Contabilidad" style="shape=umlActor;verticalLabelPosition=bottom;verticalAlign=top;html=1;outlineConnect=0;fillColor=#e1d5e7;strokeColor=#9673a6;" vertex="1" parent="XQCfGJK_gv0JmEeynuYQ-101">
          <mxGeometry x="130" y="420" width="30" height="60" as="geometry" />
        </mxCell>
        <mxCell id="XQCfGJK_gv0JmEeynuYQ-152" value="Previo Normal" style="rounded=0;whiteSpace=wrap;html=1;fillColor=#dae8fc;strokeColor=#6c8ebf;" vertex="1" parent="XQCfGJK_gv0JmEeynuYQ-101">
          <mxGeometry x="903" y="300" width="120" height="60" as="geometry" />
        </mxCell>
        <mxCell id="XQCfGJK_gv0JmEeynuYQ-153" style="edgeStyle=orthogonalEdgeStyle;rounded=1;orthogonalLoop=1;jettySize=auto;html=1;exitX=0.5;exitY=1;exitDx=0;exitDy=0;entryX=0.5;entryY=0;entryDx=0;entryDy=0;curved=0;" edge="1" parent="XQCfGJK_gv0JmEeynuYQ-101" source="XQCfGJK_gv0JmEeynuYQ-147" target="XQCfGJK_gv0JmEeynuYQ-152">
          <mxGeometry relative="1" as="geometry">
            <mxPoint x="839.5" y="177.5" as="targetPoint" />
          </mxGeometry>
        </mxCell>
        <mxCell id="XQCfGJK_gv0JmEeynuYQ-154" value="SISROD" style="shape=cylinder3;whiteSpace=wrap;html=1;boundedLbl=1;backgroundOutline=1;size=15;fillColor=#fff2cc;strokeColor=#d6b656;" vertex="1" parent="XQCfGJK_gv0JmEeynuYQ-101">
          <mxGeometry x="640" y="50" width="60" height="80" as="geometry" />
        </mxCell>
        <mxCell id="XQCfGJK_gv0JmEeynuYQ-155" style="edgeStyle=orthogonalEdgeStyle;rounded=1;orthogonalLoop=1;jettySize=auto;html=1;exitX=0.5;exitY=0;exitDx=0;exitDy=0;entryX=0.5;entryY=1;entryDx=0;entryDy=0;entryPerimeter=0;dashed=1;curved=0;" edge="1" parent="XQCfGJK_gv0JmEeynuYQ-101" source="XQCfGJK_gv0JmEeynuYQ-146" target="XQCfGJK_gv0JmEeynuYQ-154">
          <mxGeometry relative="1" as="geometry" />
        </mxCell>
        <mxCell id="XQCfGJK_gv0JmEeynuYQ-156" value="ESTADO&lt;div&gt;INSTRUCCION DE EMBARQUE CREADA&lt;/div&gt;" style="shape=document;whiteSpace=wrap;html=1;boundedLbl=1;fillColor=#ffff88;strokeColor=#36393d;" vertex="1" parent="XQCfGJK_gv0JmEeynuYQ-101">
          <mxGeometry x="405" y="60" width="160" height="70" as="geometry" />
        </mxCell>
        <mxCell id="XQCfGJK_gv0JmEeynuYQ-157" style="edgeStyle=orthogonalEdgeStyle;rounded=1;orthogonalLoop=1;jettySize=auto;html=1;exitX=0.5;exitY=0;exitDx=0;exitDy=0;entryX=0.494;entryY=0.8;entryDx=0;entryDy=0;entryPerimeter=0;curved=0;" edge="1" parent="XQCfGJK_gv0JmEeynuYQ-101" source="XQCfGJK_gv0JmEeynuYQ-146" target="XQCfGJK_gv0JmEeynuYQ-156">
          <mxGeometry relative="1" as="geometry" />
        </mxCell>
        <mxCell id="XQCfGJK_gv0JmEeynuYQ-158" value="Dirección" style="shape=umlActor;verticalLabelPosition=bottom;verticalAlign=top;html=1;outlineConnect=0;fillColor=#d5e8d4;strokeColor=#82b366;" vertex="1" parent="XQCfGJK_gv0JmEeynuYQ-101">
          <mxGeometry x="130" y="530" width="30" height="60" as="geometry" />
        </mxCell>
        <mxCell id="XQCfGJK_gv0JmEeynuYQ-181" style="edgeStyle=orthogonalEdgeStyle;rounded=1;orthogonalLoop=1;jettySize=auto;html=1;exitX=0;exitY=0.5;exitDx=0;exitDy=0;entryX=1;entryY=0.5;entryDx=0;entryDy=0;curved=0;" edge="1" parent="XQCfGJK_gv0JmEeynuYQ-101" source="XQCfGJK_gv0JmEeynuYQ-159" target="XQCfGJK_gv0JmEeynuYQ-180">
          <mxGeometry relative="1" as="geometry" />
        </mxCell>
        <mxCell id="XQCfGJK_gv0JmEeynuYQ-159" value="Cliente" style="rounded=0;whiteSpace=wrap;html=1;fillColor=#dae8fc;strokeColor=#6c8ebf;" vertex="1" parent="XQCfGJK_gv0JmEeynuYQ-101">
          <mxGeometry x="1131" y="360" width="180" height="30" as="geometry" />
        </mxCell>
        <mxCell id="XQCfGJK_gv0JmEeynuYQ-160" style="edgeStyle=orthogonalEdgeStyle;rounded=0;orthogonalLoop=1;jettySize=auto;html=1;exitX=1;exitY=0.5;exitDx=0;exitDy=0;entryX=0;entryY=0.5;entryDx=0;entryDy=0;" edge="1" parent="XQCfGJK_gv0JmEeynuYQ-101" source="XQCfGJK_gv0JmEeynuYQ-161" target="XQCfGJK_gv0JmEeynuYQ-147">
          <mxGeometry relative="1" as="geometry" />
        </mxCell>
        <mxCell id="XQCfGJK_gv0JmEeynuYQ-161" value="&lt;b style=&quot;text-decoration-line: underline;&quot;&gt;INGRESA REFERENCIA&lt;/b&gt;&amp;nbsp;de la Operación&amp;nbsp;" style="rounded=0;whiteSpace=wrap;html=1;fillColor=#dae8fc;strokeColor=#6c8ebf;" vertex="1" parent="XQCfGJK_gv0JmEeynuYQ-101">
          <mxGeometry x="670" y="185" width="180" height="80" as="geometry" />
        </mxCell>
        <mxCell id="XQCfGJK_gv0JmEeynuYQ-162" style="edgeStyle=orthogonalEdgeStyle;rounded=1;orthogonalLoop=1;jettySize=auto;html=1;exitX=0.5;exitY=1;exitDx=0;exitDy=0;exitPerimeter=0;entryX=0.5;entryY=0;entryDx=0;entryDy=0;dashed=1;curved=0;" edge="1" parent="XQCfGJK_gv0JmEeynuYQ-101" source="XQCfGJK_gv0JmEeynuYQ-166" target="XQCfGJK_gv0JmEeynuYQ-172">
          <mxGeometry relative="1" as="geometry" />
        </mxCell>
        <mxCell id="XQCfGJK_gv0JmEeynuYQ-163" style="edgeStyle=orthogonalEdgeStyle;rounded=1;orthogonalLoop=1;jettySize=auto;html=1;exitX=0;exitY=0.5;exitDx=0;exitDy=0;exitPerimeter=0;entryX=1;entryY=0.5;entryDx=0;entryDy=0;dashed=1;curved=0;" edge="1" parent="XQCfGJK_gv0JmEeynuYQ-101" source="XQCfGJK_gv0JmEeynuYQ-166" target="XQCfGJK_gv0JmEeynuYQ-152">
          <mxGeometry relative="1" as="geometry">
            <Array as="points">
              <mxPoint x="1090" y="95" />
              <mxPoint x="1090" y="330" />
            </Array>
          </mxGeometry>
        </mxCell>
        <mxCell id="XQCfGJK_gv0JmEeynuYQ-164" style="edgeStyle=orthogonalEdgeStyle;rounded=1;orthogonalLoop=1;jettySize=auto;html=1;exitX=0.5;exitY=1;exitDx=0;exitDy=0;exitPerimeter=0;curved=0;dashed=1;" edge="1" parent="XQCfGJK_gv0JmEeynuYQ-101" source="XQCfGJK_gv0JmEeynuYQ-166" target="XQCfGJK_gv0JmEeynuYQ-170">
          <mxGeometry relative="1" as="geometry" />
        </mxCell>
        <mxCell id="XQCfGJK_gv0JmEeynuYQ-165" style="edgeStyle=orthogonalEdgeStyle;rounded=1;orthogonalLoop=1;jettySize=auto;html=1;exitX=1;exitY=0.5;exitDx=0;exitDy=0;exitPerimeter=0;entryX=1;entryY=0.5;entryDx=0;entryDy=0;curved=0;dashed=1;" edge="1" parent="XQCfGJK_gv0JmEeynuYQ-101" source="XQCfGJK_gv0JmEeynuYQ-166" target="XQCfGJK_gv0JmEeynuYQ-171">
          <mxGeometry relative="1" as="geometry" />
        </mxCell>
        <mxCell id="XQCfGJK_gv0JmEeynuYQ-166" value="SISROD" style="shape=cylinder3;whiteSpace=wrap;html=1;boundedLbl=1;backgroundOutline=1;size=15;fillColor=#fff2cc;strokeColor=#d6b656;" vertex="1" parent="XQCfGJK_gv0JmEeynuYQ-101">
          <mxGeometry x="1120" y="55" width="60" height="80" as="geometry" />
        </mxCell>
        <mxCell id="XQCfGJK_gv0JmEeynuYQ-167" style="edgeStyle=orthogonalEdgeStyle;rounded=0;orthogonalLoop=1;jettySize=auto;html=1;exitX=1;exitY=0.5;exitDx=0;exitDy=0;entryX=0;entryY=0.5;entryDx=0;entryDy=0;" edge="1" parent="XQCfGJK_gv0JmEeynuYQ-101" source="XQCfGJK_gv0JmEeynuYQ-168" target="XQCfGJK_gv0JmEeynuYQ-170">
          <mxGeometry relative="1" as="geometry">
            <mxPoint x="1440" y="225.33333333333348" as="targetPoint" />
          </mxGeometry>
        </mxCell>
        <mxCell id="XQCfGJK_gv0JmEeynuYQ-168" value="&lt;b&gt;&lt;u&gt;INGRESA PATENTE&lt;/u&gt;&lt;/b&gt;&lt;br&gt;(por default 3522)" style="rounded=0;whiteSpace=wrap;html=1;fillColor=#dae8fc;strokeColor=#6c8ebf;" vertex="1" parent="XQCfGJK_gv0JmEeynuYQ-101">
          <mxGeometry x="1260" y="195" width="120" height="60" as="geometry" />
        </mxCell>
        <mxCell id="XQCfGJK_gv0JmEeynuYQ-169" style="edgeStyle=orthogonalEdgeStyle;rounded=0;orthogonalLoop=1;jettySize=auto;html=1;exitX=0.5;exitY=1;exitDx=0;exitDy=0;entryX=0.5;entryY=0;entryDx=0;entryDy=0;" edge="1" parent="XQCfGJK_gv0JmEeynuYQ-101" source="XQCfGJK_gv0JmEeynuYQ-170" target="XQCfGJK_gv0JmEeynuYQ-171">
          <mxGeometry relative="1" as="geometry" />
        </mxCell>
        <mxCell id="XQCfGJK_gv0JmEeynuYQ-170" value="&lt;u&gt;&lt;b&gt;INGRESA NUMERO DE PEDIMENTO&lt;/b&gt;&lt;/u&gt;" style="rounded=0;whiteSpace=wrap;html=1;fillColor=#dae8fc;strokeColor=#6c8ebf;" vertex="1" parent="XQCfGJK_gv0JmEeynuYQ-101">
          <mxGeometry x="1420" y="195" width="120" height="60" as="geometry" />
        </mxCell>
        <mxCell id="XQCfGJK_gv0JmEeynuYQ-193" style="edgeStyle=orthogonalEdgeStyle;rounded=0;orthogonalLoop=1;jettySize=auto;html=1;exitX=0.5;exitY=1;exitDx=0;exitDy=0;" edge="1" parent="XQCfGJK_gv0JmEeynuYQ-101" source="XQCfGJK_gv0JmEeynuYQ-171" target="XQCfGJK_gv0JmEeynuYQ-173">
          <mxGeometry relative="1" as="geometry" />
        </mxCell>
        <mxCell id="XQCfGJK_gv0JmEeynuYQ-171" value="&lt;u&gt;&lt;b&gt;INGRESA NOMBRE DE EJECUTIVA&lt;/b&gt;&lt;/u&gt;&amp;nbsp;que lleva la operación" style="rounded=0;whiteSpace=wrap;html=1;fillColor=#dae8fc;strokeColor=#6c8ebf;" vertex="1" parent="XQCfGJK_gv0JmEeynuYQ-101">
          <mxGeometry x="1420" y="280" width="120" height="60" as="geometry" />
        </mxCell>
        <mxCell id="XQCfGJK_gv0JmEeynuYQ-172" value="Previo Express" style="rounded=0;whiteSpace=wrap;html=1;fillColor=#dae8fc;strokeColor=#6c8ebf;" vertex="1" parent="XQCfGJK_gv0JmEeynuYQ-101">
          <mxGeometry x="1070" y="195" width="120" height="60" as="geometry" />
        </mxCell>
        <mxCell id="XQCfGJK_gv0JmEeynuYQ-176" style="edgeStyle=orthogonalEdgeStyle;rounded=1;orthogonalLoop=1;jettySize=auto;html=1;exitX=0;exitY=0.25;exitDx=0;exitDy=0;curved=0;" edge="1" parent="XQCfGJK_gv0JmEeynuYQ-101" source="XQCfGJK_gv0JmEeynuYQ-173" target="XQCfGJK_gv0JmEeynuYQ-159">
          <mxGeometry relative="1" as="geometry" />
        </mxCell>
        <mxCell id="XQCfGJK_gv0JmEeynuYQ-177" style="edgeStyle=orthogonalEdgeStyle;rounded=1;orthogonalLoop=1;jettySize=auto;html=1;exitX=0;exitY=0.75;exitDx=0;exitDy=0;entryX=1;entryY=0.5;entryDx=0;entryDy=0;curved=0;" edge="1" parent="XQCfGJK_gv0JmEeynuYQ-101" source="XQCfGJK_gv0JmEeynuYQ-173" target="XQCfGJK_gv0JmEeynuYQ-174">
          <mxGeometry relative="1" as="geometry" />
        </mxCell>
        <mxCell id="XQCfGJK_gv0JmEeynuYQ-178" style="edgeStyle=orthogonalEdgeStyle;rounded=1;orthogonalLoop=1;jettySize=auto;html=1;exitX=1;exitY=0.5;exitDx=0;exitDy=0;entryX=0.5;entryY=0;entryDx=0;entryDy=0;curved=0;" edge="1" parent="XQCfGJK_gv0JmEeynuYQ-101" source="XQCfGJK_gv0JmEeynuYQ-173" target="XQCfGJK_gv0JmEeynuYQ-175">
          <mxGeometry relative="1" as="geometry">
            <Array as="points">
              <mxPoint x="1610" y="415" />
              <mxPoint x="1610" y="460" />
              <mxPoint x="1570" y="460" />
            </Array>
          </mxGeometry>
        </mxCell>
        <mxCell id="XQCfGJK_gv0JmEeynuYQ-173" value="&lt;u&gt;&lt;b&gt;SELECCIONA QUIEN&amp;nbsp;&lt;/b&gt;&lt;/u&gt;&lt;div&gt;&lt;u&gt;&lt;b&gt;DISPONDRA ELTRANSPORTE&lt;/b&gt;&lt;/u&gt;&lt;/div&gt;" style="shape=hexagon;perimeter=hexagonPerimeter2;whiteSpace=wrap;html=1;fixedSize=1;rounded=0;strokeColor=#6c8ebf;align=center;verticalAlign=middle;fontFamily=Helvetica;fontSize=12;fontColor=default;fillColor=#dae8fc;" vertex="1" parent="XQCfGJK_gv0JmEeynuYQ-101">
          <mxGeometry x="1370" y="375" width="220" height="80" as="geometry" />
        </mxCell>
        <mxCell id="XQCfGJK_gv0JmEeynuYQ-182" style="edgeStyle=orthogonalEdgeStyle;rounded=1;orthogonalLoop=1;jettySize=auto;html=1;entryX=1;entryY=0.5;entryDx=0;entryDy=0;curved=0;exitX=0;exitY=0.5;exitDx=0;exitDy=0;" edge="1" parent="XQCfGJK_gv0JmEeynuYQ-101" source="XQCfGJK_gv0JmEeynuYQ-174" target="XQCfGJK_gv0JmEeynuYQ-180">
          <mxGeometry relative="1" as="geometry">
            <mxPoint x="1130" y="450" as="sourcePoint" />
          </mxGeometry>
        </mxCell>
        <mxCell id="XQCfGJK_gv0JmEeynuYQ-174" value="Naviera" style="rounded=0;whiteSpace=wrap;html=1;fillColor=#dae8fc;strokeColor=#6c8ebf;" vertex="1" parent="XQCfGJK_gv0JmEeynuYQ-101">
          <mxGeometry x="1131" y="440" width="180" height="30" as="geometry" />
        </mxCell>
        <mxCell id="XQCfGJK_gv0JmEeynuYQ-197" style="edgeStyle=orthogonalEdgeStyle;rounded=0;orthogonalLoop=1;jettySize=auto;html=1;exitX=0.5;exitY=1;exitDx=0;exitDy=0;entryX=0.5;entryY=0;entryDx=0;entryDy=0;" edge="1" parent="XQCfGJK_gv0JmEeynuYQ-101" source="XQCfGJK_gv0JmEeynuYQ-175" target="XQCfGJK_gv0JmEeynuYQ-196">
          <mxGeometry relative="1" as="geometry" />
        </mxCell>
        <mxCell id="XQCfGJK_gv0JmEeynuYQ-175" value="Agencia Aduanal" style="rounded=0;whiteSpace=wrap;html=1;fillColor=#dae8fc;strokeColor=#6c8ebf;" vertex="1" parent="XQCfGJK_gv0JmEeynuYQ-101">
          <mxGeometry x="1480" y="480" width="180" height="30" as="geometry" />
        </mxCell>
        <mxCell id="XQCfGJK_gv0JmEeynuYQ-189" style="edgeStyle=orthogonalEdgeStyle;rounded=0;orthogonalLoop=1;jettySize=auto;html=1;exitX=0;exitY=0.5;exitDx=0;exitDy=0;entryX=1;entryY=0.5;entryDx=0;entryDy=0;" edge="1" parent="XQCfGJK_gv0JmEeynuYQ-101" source="XQCfGJK_gv0JmEeynuYQ-180" target="XQCfGJK_gv0JmEeynuYQ-188">
          <mxGeometry relative="1" as="geometry" />
        </mxCell>
        <mxCell id="XQCfGJK_gv0JmEeynuYQ-180" value="&lt;u&gt;&lt;b&gt;INGRESA RFC&lt;/b&gt;&lt;/u&gt; del Cliente" style="rounded=0;whiteSpace=wrap;html=1;fillColor=#dae8fc;strokeColor=#6c8ebf;" vertex="1" parent="XQCfGJK_gv0JmEeynuYQ-101">
          <mxGeometry x="903" y="390" width="180" height="50" as="geometry" />
        </mxCell>
        <mxCell id="XQCfGJK_gv0JmEeynuYQ-183" value="" style="ellipse;whiteSpace=wrap;html=1;aspect=fixed;fillColor=#f8cecc;strokeColor=#b85450;" vertex="1" parent="XQCfGJK_gv0JmEeynuYQ-101">
          <mxGeometry x="290" y="195" width="60" height="60" as="geometry" />
        </mxCell>
        <mxCell id="XQCfGJK_gv0JmEeynuYQ-187" style="edgeStyle=orthogonalEdgeStyle;rounded=0;orthogonalLoop=1;jettySize=auto;html=1;exitX=0.5;exitY=0.5;exitDx=0;exitDy=0;exitPerimeter=0;entryX=0;entryY=0.5;entryDx=0;entryDy=0;" edge="1" parent="XQCfGJK_gv0JmEeynuYQ-101" source="XQCfGJK_gv0JmEeynuYQ-185" target="XQCfGJK_gv0JmEeynuYQ-146">
          <mxGeometry relative="1" as="geometry" />
        </mxCell>
        <mxCell id="XQCfGJK_gv0JmEeynuYQ-185" value="" style="shape=umlActor;verticalLabelPosition=bottom;verticalAlign=top;html=1;outlineConnect=0;fillColor=#dae8fc;strokeColor=#6c8ebf;" vertex="1" parent="XQCfGJK_gv0JmEeynuYQ-101">
          <mxGeometry x="404" y="195" width="30" height="60" as="geometry" />
        </mxCell>
        <mxCell id="XQCfGJK_gv0JmEeynuYQ-186" style="edgeStyle=orthogonalEdgeStyle;rounded=0;orthogonalLoop=1;jettySize=auto;html=1;exitX=1;exitY=0.5;exitDx=0;exitDy=0;entryX=0.5;entryY=0.5;entryDx=0;entryDy=0;entryPerimeter=0;" edge="1" parent="XQCfGJK_gv0JmEeynuYQ-101" source="XQCfGJK_gv0JmEeynuYQ-183" target="XQCfGJK_gv0JmEeynuYQ-185">
          <mxGeometry relative="1" as="geometry" />
        </mxCell>
        <mxCell id="XQCfGJK_gv0JmEeynuYQ-215" style="edgeStyle=orthogonalEdgeStyle;rounded=0;orthogonalLoop=1;jettySize=auto;html=1;exitX=0.5;exitY=1;exitDx=0;exitDy=0;entryX=0.5;entryY=0;entryDx=0;entryDy=0;" edge="1" parent="XQCfGJK_gv0JmEeynuYQ-101" source="XQCfGJK_gv0JmEeynuYQ-188" target="XQCfGJK_gv0JmEeynuYQ-214">
          <mxGeometry relative="1" as="geometry" />
        </mxCell>
        <mxCell id="XQCfGJK_gv0JmEeynuYQ-188" value="&lt;u&gt;&lt;b&gt;INGRESA DOMICILIO FISCAL&lt;/b&gt;&lt;/u&gt;&amp;nbsp;del Cliente" style="rounded=0;whiteSpace=wrap;html=1;fillColor=#dae8fc;strokeColor=#6c8ebf;" vertex="1" parent="XQCfGJK_gv0JmEeynuYQ-101">
          <mxGeometry x="690" y="390" width="180" height="50" as="geometry" />
        </mxCell>
        <mxCell id="XQCfGJK_gv0JmEeynuYQ-191" style="edgeStyle=orthogonalEdgeStyle;rounded=1;orthogonalLoop=1;jettySize=auto;html=1;exitX=1;exitY=0.5;exitDx=0;exitDy=0;exitPerimeter=0;curved=0;dashed=1;" edge="1" parent="XQCfGJK_gv0JmEeynuYQ-101" source="XQCfGJK_gv0JmEeynuYQ-190" target="XQCfGJK_gv0JmEeynuYQ-188">
          <mxGeometry relative="1" as="geometry" />
        </mxCell>
        <mxCell id="XQCfGJK_gv0JmEeynuYQ-192" style="edgeStyle=orthogonalEdgeStyle;rounded=1;orthogonalLoop=1;jettySize=auto;html=1;exitX=1;exitY=0.5;exitDx=0;exitDy=0;exitPerimeter=0;entryX=0.5;entryY=0;entryDx=0;entryDy=0;curved=0;dashed=1;" edge="1" parent="XQCfGJK_gv0JmEeynuYQ-101" source="XQCfGJK_gv0JmEeynuYQ-190" target="XQCfGJK_gv0JmEeynuYQ-180">
          <mxGeometry relative="1" as="geometry">
            <Array as="points">
              <mxPoint x="870" y="320" />
              <mxPoint x="870" y="370" />
              <mxPoint x="993" y="370" />
            </Array>
          </mxGeometry>
        </mxCell>
        <mxCell id="XQCfGJK_gv0JmEeynuYQ-190" value="SISROD" style="shape=cylinder3;whiteSpace=wrap;html=1;boundedLbl=1;backgroundOutline=1;size=15;fillColor=#fff2cc;strokeColor=#d6b656;" vertex="1" parent="XQCfGJK_gv0JmEeynuYQ-101">
          <mxGeometry x="699.5" y="280" width="60" height="80" as="geometry" />
        </mxCell>
        <mxCell id="XQCfGJK_gv0JmEeynuYQ-194" value="" style="rounded=0;whiteSpace=wrap;html=1;" vertex="1" parent="XQCfGJK_gv0JmEeynuYQ-101">
          <mxGeometry x="70" y="620" width="150" height="110" as="geometry" />
        </mxCell>
        <mxCell id="XQCfGJK_gv0JmEeynuYQ-195" value="SISROD" style="shape=umlActor;verticalLabelPosition=bottom;verticalAlign=top;html=1;outlineConnect=0;fillColor=#ffe6cc;strokeColor=#d79b00;" vertex="1" parent="XQCfGJK_gv0JmEeynuYQ-101">
          <mxGeometry x="130" y="640" width="30" height="60" as="geometry" />
        </mxCell>
        <mxCell id="XQCfGJK_gv0JmEeynuYQ-199" style="edgeStyle=orthogonalEdgeStyle;rounded=0;orthogonalLoop=1;jettySize=auto;html=1;exitX=0.5;exitY=1;exitDx=0;exitDy=0;" edge="1" parent="XQCfGJK_gv0JmEeynuYQ-101" source="XQCfGJK_gv0JmEeynuYQ-196" target="XQCfGJK_gv0JmEeynuYQ-198">
          <mxGeometry relative="1" as="geometry" />
        </mxCell>
        <mxCell id="XQCfGJK_gv0JmEeynuYQ-196" value="&lt;u&gt;&lt;b&gt;INGRESA RFC&lt;/b&gt;&lt;/u&gt; de entidad ALCANCE" style="rounded=0;whiteSpace=wrap;html=1;fillColor=#dae8fc;strokeColor=#6c8ebf;" vertex="1" parent="XQCfGJK_gv0JmEeynuYQ-101">
          <mxGeometry x="1480" y="540" width="180" height="50" as="geometry" />
        </mxCell>
        <mxCell id="XQCfGJK_gv0JmEeynuYQ-234" style="edgeStyle=orthogonalEdgeStyle;rounded=0;orthogonalLoop=1;jettySize=auto;html=1;exitX=0.5;exitY=1;exitDx=0;exitDy=0;entryX=0.5;entryY=0;entryDx=0;entryDy=0;" edge="1" parent="XQCfGJK_gv0JmEeynuYQ-101" source="XQCfGJK_gv0JmEeynuYQ-198" target="XQCfGJK_gv0JmEeynuYQ-202">
          <mxGeometry relative="1" as="geometry" />
        </mxCell>
        <mxCell id="XQCfGJK_gv0JmEeynuYQ-198" value="&lt;u&gt;&lt;b&gt;INGRESA DOMICILIO FISCAL&lt;/b&gt;&lt;/u&gt;&amp;nbsp;de ALCANCE" style="rounded=0;whiteSpace=wrap;html=1;fillColor=#dae8fc;strokeColor=#6c8ebf;" vertex="1" parent="XQCfGJK_gv0JmEeynuYQ-101">
          <mxGeometry x="1480" y="610" width="180" height="50" as="geometry" />
        </mxCell>
        <mxCell id="XQCfGJK_gv0JmEeynuYQ-297" style="edgeStyle=orthogonalEdgeStyle;rounded=0;orthogonalLoop=1;jettySize=auto;html=1;exitX=0.5;exitY=1;exitDx=0;exitDy=0;entryX=0.5;entryY=0;entryDx=0;entryDy=0;" edge="1" parent="XQCfGJK_gv0JmEeynuYQ-101" source="XQCfGJK_gv0JmEeynuYQ-200" target="XQCfGJK_gv0JmEeynuYQ-296">
          <mxGeometry relative="1" as="geometry" />
        </mxCell>
        <mxCell id="XQCfGJK_gv0JmEeynuYQ-200" value="&lt;u&gt;&lt;b&gt;SELECCIONA EL TIPO DE UNIDAD&lt;/b&gt;&lt;/u&gt;&lt;div&gt;&lt;span style=&quot;background-color: transparent; color: light-dark(rgb(0, 0, 0), rgb(255, 255, 255));&quot;&gt;Carga Suelta&lt;/span&gt;&lt;/div&gt;" style="rounded=0;whiteSpace=wrap;html=1;fillColor=#dae8fc;strokeColor=#6c8ebf;align=center;" vertex="1" parent="XQCfGJK_gv0JmEeynuYQ-101">
          <mxGeometry x="1480" y="1060" width="180" height="90" as="geometry" />
        </mxCell>
        <mxCell id="XQCfGJK_gv0JmEeynuYQ-236" style="edgeStyle=orthogonalEdgeStyle;rounded=0;orthogonalLoop=1;jettySize=auto;html=1;exitX=0.5;exitY=1;exitDx=0;exitDy=0;entryX=0.5;entryY=0;entryDx=0;entryDy=0;" edge="1" parent="XQCfGJK_gv0JmEeynuYQ-101" source="XQCfGJK_gv0JmEeynuYQ-202" target="XQCfGJK_gv0JmEeynuYQ-235">
          <mxGeometry relative="1" as="geometry" />
        </mxCell>
        <mxCell id="XQCfGJK_gv0JmEeynuYQ-202" value="&lt;u&gt;&lt;b&gt;SELECCIONA SI LA OPERACION ES IMO&lt;/b&gt;&lt;/u&gt;" style="rounded=0;whiteSpace=wrap;html=1;fillColor=#dae8fc;strokeColor=#6c8ebf;" vertex="1" parent="XQCfGJK_gv0JmEeynuYQ-101">
          <mxGeometry x="1480" y="680" width="180" height="60" as="geometry" />
        </mxCell>
        <mxCell id="XQCfGJK_gv0JmEeynuYQ-298" style="edgeStyle=orthogonalEdgeStyle;rounded=0;orthogonalLoop=1;jettySize=auto;html=1;exitX=0.5;exitY=1;exitDx=0;exitDy=0;entryX=0.5;entryY=0;entryDx=0;entryDy=0;entryPerimeter=0;" edge="1" parent="XQCfGJK_gv0JmEeynuYQ-101" source="XQCfGJK_gv0JmEeynuYQ-206" target="XQCfGJK_gv0JmEeynuYQ-246">
          <mxGeometry relative="1" as="geometry">
            <mxPoint x="1555.4736842105262" y="1520" as="targetPoint" />
          </mxGeometry>
        </mxCell>
        <mxCell id="XQCfGJK_gv0JmEeynuYQ-206" value="Existe un&amp;nbsp;&lt;div&gt;registro&lt;div&gt;en Control de Tarifa&lt;/div&gt;&lt;div&gt;con&lt;br&gt;Tipo Unidad&lt;br&gt;Destino&lt;br&gt;IMO&lt;/div&gt;&lt;/div&gt;&lt;div&gt;¿Previamente&amp;nbsp;&lt;/div&gt;&lt;div&gt;registrado?&lt;/div&gt;" style="rhombus;whiteSpace=wrap;html=1;rounded=0;strokeColor=#d79b00;align=center;verticalAlign=middle;fontFamily=Helvetica;fontSize=12;fillColor=#ffe6cc;" vertex="1" parent="XQCfGJK_gv0JmEeynuYQ-101">
          <mxGeometry x="1440" y="1300" width="230" height="210" as="geometry" />
        </mxCell>
        <mxCell id="XQCfGJK_gv0JmEeynuYQ-208" value="SISROD" style="shape=cylinder3;whiteSpace=wrap;html=1;boundedLbl=1;backgroundOutline=1;size=15;fillColor=#fff2cc;strokeColor=#d6b656;" vertex="1" parent="XQCfGJK_gv0JmEeynuYQ-101">
          <mxGeometry x="1380" y="730" width="60" height="80" as="geometry" />
        </mxCell>
        <mxCell id="XQCfGJK_gv0JmEeynuYQ-218" style="edgeStyle=orthogonalEdgeStyle;rounded=1;orthogonalLoop=1;jettySize=auto;html=1;exitX=1;exitY=0.5;exitDx=0;exitDy=0;entryX=0;entryY=0.5;entryDx=0;entryDy=0;curved=0;" edge="1" parent="XQCfGJK_gv0JmEeynuYQ-101" source="XQCfGJK_gv0JmEeynuYQ-214" target="XQCfGJK_gv0JmEeynuYQ-217">
          <mxGeometry relative="1" as="geometry" />
        </mxCell>
        <mxCell id="XQCfGJK_gv0JmEeynuYQ-222" style="edgeStyle=orthogonalEdgeStyle;rounded=1;orthogonalLoop=1;jettySize=auto;html=1;exitX=0.5;exitY=1;exitDx=0;exitDy=0;entryX=0;entryY=0.5;entryDx=0;entryDy=0;curved=0;" edge="1" parent="XQCfGJK_gv0JmEeynuYQ-101" source="XQCfGJK_gv0JmEeynuYQ-214" target="XQCfGJK_gv0JmEeynuYQ-219">
          <mxGeometry relative="1" as="geometry" />
        </mxCell>
        <mxCell id="XQCfGJK_gv0JmEeynuYQ-214" value="Tipo de Carga&amp;nbsp;&lt;div&gt;de la Referencia&lt;/div&gt;" style="rhombus;whiteSpace=wrap;html=1;rounded=0;strokeColor=#6c8ebf;align=center;verticalAlign=middle;fontFamily=Helvetica;fontSize=12;fontColor=default;fillColor=#dae8fc;" vertex="1" parent="XQCfGJK_gv0JmEeynuYQ-101">
          <mxGeometry x="695" y="470" width="170" height="135" as="geometry" />
        </mxCell>
        <mxCell id="XQCfGJK_gv0JmEeynuYQ-216" style="edgeStyle=orthogonalEdgeStyle;rounded=1;orthogonalLoop=1;jettySize=auto;html=1;exitX=0.5;exitY=1;exitDx=0;exitDy=0;entryX=0;entryY=0.5;entryDx=0;entryDy=0;entryPerimeter=0;curved=0;dashed=1;" edge="1" parent="XQCfGJK_gv0JmEeynuYQ-101" source="XQCfGJK_gv0JmEeynuYQ-219" target="XQCfGJK_gv0JmEeynuYQ-190">
          <mxGeometry relative="1" as="geometry" />
        </mxCell>
        <mxCell id="XQCfGJK_gv0JmEeynuYQ-217" value="&lt;u&gt;&lt;b&gt;SELECCIONA&amp;nbsp;&lt;/b&gt;&lt;/u&gt;&lt;div&gt;&lt;u&gt;&lt;b&gt;CARGA SUELTA&lt;/b&gt;&lt;/u&gt;&lt;/div&gt;" style="rounded=0;whiteSpace=wrap;html=1;fillColor=#dae8fc;strokeColor=#6c8ebf;" vertex="1" parent="XQCfGJK_gv0JmEeynuYQ-101">
          <mxGeometry x="890" y="513.75" width="180" height="47.5" as="geometry" />
        </mxCell>
        <mxCell id="XQCfGJK_gv0JmEeynuYQ-219" value="&lt;u&gt;&lt;b&gt;SELECCIONA&amp;nbsp;&lt;/b&gt;&lt;/u&gt;&lt;div&gt;&lt;u&gt;&lt;b&gt;CARGA CONTENERIZADA&lt;/b&gt;&lt;/u&gt;&lt;/div&gt;" style="rounded=0;whiteSpace=wrap;html=1;fillColor=#dae8fc;strokeColor=#6c8ebf;" vertex="1" parent="XQCfGJK_gv0JmEeynuYQ-101">
          <mxGeometry x="830" y="605" width="180" height="47.5" as="geometry" />
        </mxCell>
        <mxCell id="XQCfGJK_gv0JmEeynuYQ-224" style="edgeStyle=orthogonalEdgeStyle;rounded=1;orthogonalLoop=1;jettySize=auto;html=1;exitX=0.5;exitY=1;exitDx=0;exitDy=0;entryX=0.5;entryY=0;entryDx=0;entryDy=0;curved=0;" edge="1" parent="XQCfGJK_gv0JmEeynuYQ-101" source="XQCfGJK_gv0JmEeynuYQ-226" target="XQCfGJK_gv0JmEeynuYQ-227">
          <mxGeometry relative="1" as="geometry" />
        </mxCell>
        <mxCell id="XQCfGJK_gv0JmEeynuYQ-225" style="edgeStyle=orthogonalEdgeStyle;rounded=1;orthogonalLoop=1;jettySize=auto;html=1;exitX=0;exitY=0.5;exitDx=0;exitDy=0;curved=0;entryX=0.5;entryY=0;entryDx=0;entryDy=0;" edge="1" parent="XQCfGJK_gv0JmEeynuYQ-101" source="XQCfGJK_gv0JmEeynuYQ-226" target="XQCfGJK_gv0JmEeynuYQ-228">
          <mxGeometry relative="1" as="geometry">
            <mxPoint x="1260" y="910" as="targetPoint" />
            <Array as="points">
              <mxPoint x="1465" y="907" />
              <mxPoint x="1465" y="840" />
              <mxPoint x="1360" y="840" />
            </Array>
          </mxGeometry>
        </mxCell>
        <mxCell id="XQCfGJK_gv0JmEeynuYQ-226" value="Tipo de Carga&amp;nbsp;&lt;div&gt;de la Referencia&lt;/div&gt;" style="rhombus;whiteSpace=wrap;html=1;rounded=0;strokeColor=#6c8ebf;align=center;verticalAlign=middle;fontFamily=Helvetica;fontSize=12;fontColor=default;fillColor=#dae8fc;" vertex="1" parent="XQCfGJK_gv0JmEeynuYQ-101">
          <mxGeometry x="1485" y="840" width="170" height="135" as="geometry" />
        </mxCell>
        <mxCell id="XQCfGJK_gv0JmEeynuYQ-230" style="edgeStyle=orthogonalEdgeStyle;rounded=0;orthogonalLoop=1;jettySize=auto;html=1;exitX=0.5;exitY=1;exitDx=0;exitDy=0;entryX=0.5;entryY=0;entryDx=0;entryDy=0;" edge="1" parent="XQCfGJK_gv0JmEeynuYQ-101" source="XQCfGJK_gv0JmEeynuYQ-227" target="XQCfGJK_gv0JmEeynuYQ-200">
          <mxGeometry relative="1" as="geometry" />
        </mxCell>
        <mxCell id="XQCfGJK_gv0JmEeynuYQ-227" value="&lt;u&gt;&lt;b&gt;SELECCIONA&amp;nbsp;&lt;/b&gt;&lt;/u&gt;&lt;div&gt;&lt;u&gt;&lt;b&gt;CARGA SUELTA&lt;/b&gt;&lt;/u&gt;&lt;/div&gt;" style="rounded=0;whiteSpace=wrap;html=1;fillColor=#dae8fc;strokeColor=#6c8ebf;" vertex="1" parent="XQCfGJK_gv0JmEeynuYQ-101">
          <mxGeometry x="1480" y="993" width="180" height="47.5" as="geometry" />
        </mxCell>
        <mxCell id="XQCfGJK_gv0JmEeynuYQ-232" style="edgeStyle=orthogonalEdgeStyle;rounded=0;orthogonalLoop=1;jettySize=auto;html=1;exitX=0.5;exitY=1;exitDx=0;exitDy=0;" edge="1" parent="XQCfGJK_gv0JmEeynuYQ-101" source="XQCfGJK_gv0JmEeynuYQ-228" target="XQCfGJK_gv0JmEeynuYQ-231">
          <mxGeometry relative="1" as="geometry" />
        </mxCell>
        <mxCell id="XQCfGJK_gv0JmEeynuYQ-228" value="&lt;u&gt;&lt;b&gt;SELECCIONA&amp;nbsp;&lt;/b&gt;&lt;/u&gt;&lt;div&gt;&lt;u&gt;&lt;b&gt;CARGA CONTENERIZADA&lt;/b&gt;&lt;/u&gt;&lt;/div&gt;" style="rounded=0;whiteSpace=wrap;html=1;fillColor=#dae8fc;strokeColor=#6c8ebf;" vertex="1" parent="XQCfGJK_gv0JmEeynuYQ-101">
          <mxGeometry x="1270" y="862.75" width="180" height="47.5" as="geometry" />
        </mxCell>
        <mxCell id="XQCfGJK_gv0JmEeynuYQ-294" style="edgeStyle=orthogonalEdgeStyle;rounded=0;orthogonalLoop=1;jettySize=auto;html=1;exitX=0.5;exitY=1;exitDx=0;exitDy=0;" edge="1" parent="XQCfGJK_gv0JmEeynuYQ-101" source="XQCfGJK_gv0JmEeynuYQ-231" target="XQCfGJK_gv0JmEeynuYQ-293">
          <mxGeometry relative="1" as="geometry" />
        </mxCell>
        <mxCell id="XQCfGJK_gv0JmEeynuYQ-231" value="&lt;u&gt;&lt;b&gt;SELECCIONA EL TIPO DE UNIDAD&lt;/b&gt;&lt;/u&gt;&lt;div&gt;&lt;span style=&quot;background-color: transparent; color: light-dark(rgb(0, 0, 0), rgb(255, 255, 255));&quot;&gt;Sencillo&lt;/span&gt;&lt;br&gt;&lt;span style=&quot;background-color: transparent; color: light-dark(rgb(0, 0, 0), rgb(255, 255, 255));&quot;&gt;Full&lt;/span&gt;&lt;/div&gt;" style="rounded=0;whiteSpace=wrap;html=1;fillColor=#dae8fc;strokeColor=#6c8ebf;align=center;" vertex="1" parent="XQCfGJK_gv0JmEeynuYQ-101">
          <mxGeometry x="1270" y="931.75" width="180" height="90" as="geometry" />
        </mxCell>
        <mxCell id="XQCfGJK_gv0JmEeynuYQ-237" style="edgeStyle=orthogonalEdgeStyle;rounded=0;orthogonalLoop=1;jettySize=auto;html=1;exitX=0.5;exitY=1;exitDx=0;exitDy=0;entryX=0.5;entryY=0;entryDx=0;entryDy=0;" edge="1" parent="XQCfGJK_gv0JmEeynuYQ-101" source="XQCfGJK_gv0JmEeynuYQ-235" target="XQCfGJK_gv0JmEeynuYQ-226">
          <mxGeometry relative="1" as="geometry" />
        </mxCell>
        <mxCell id="XQCfGJK_gv0JmEeynuYQ-235" value="&lt;u&gt;&lt;b&gt;SELECCIONA EL DESTINO&lt;/b&gt;&lt;/u&gt; al que llegara la Operación" style="rounded=0;whiteSpace=wrap;html=1;fillColor=#dae8fc;strokeColor=#6c8ebf;" vertex="1" parent="XQCfGJK_gv0JmEeynuYQ-101">
          <mxGeometry x="1480" y="760" width="180" height="60" as="geometry" />
        </mxCell>
        <mxCell id="XQCfGJK_gv0JmEeynuYQ-238" style="edgeStyle=orthogonalEdgeStyle;rounded=1;orthogonalLoop=1;jettySize=auto;html=1;exitX=0.5;exitY=0;exitDx=0;exitDy=0;entryX=0;entryY=0.5;entryDx=0;entryDy=0;entryPerimeter=0;curved=0;dashed=1;" edge="1" parent="XQCfGJK_gv0JmEeynuYQ-101" source="XQCfGJK_gv0JmEeynuYQ-228" target="XQCfGJK_gv0JmEeynuYQ-208">
          <mxGeometry relative="1" as="geometry">
            <Array as="points">
              <mxPoint x="1360" y="770" />
            </Array>
          </mxGeometry>
        </mxCell>
        <mxCell id="XQCfGJK_gv0JmEeynuYQ-329" style="edgeStyle=orthogonalEdgeStyle;rounded=0;orthogonalLoop=1;jettySize=auto;html=1;exitX=0.5;exitY=0.5;exitDx=0;exitDy=0;exitPerimeter=0;entryX=0;entryY=0.5;entryDx=0;entryDy=0;" edge="1" parent="XQCfGJK_gv0JmEeynuYQ-101" source="XQCfGJK_gv0JmEeynuYQ-240" target="XQCfGJK_gv0JmEeynuYQ-242">
          <mxGeometry relative="1" as="geometry" />
        </mxCell>
        <mxCell id="XQCfGJK_gv0JmEeynuYQ-240" value="" style="shape=umlActor;verticalLabelPosition=bottom;verticalAlign=top;html=1;outlineConnect=0;fillColor=#ffe6cc;strokeColor=#d79b00;" vertex="1" parent="XQCfGJK_gv0JmEeynuYQ-101">
          <mxGeometry x="1090" y="507.5" width="30" height="60" as="geometry" />
        </mxCell>
        <mxCell id="XQCfGJK_gv0JmEeynuYQ-328" style="edgeStyle=orthogonalEdgeStyle;rounded=0;orthogonalLoop=1;jettySize=auto;html=1;exitX=0.5;exitY=0.5;exitDx=0;exitDy=0;exitPerimeter=0;entryX=0;entryY=0.5;entryDx=0;entryDy=0;" edge="1" parent="XQCfGJK_gv0JmEeynuYQ-101" source="XQCfGJK_gv0JmEeynuYQ-241" target="XQCfGJK_gv0JmEeynuYQ-243">
          <mxGeometry relative="1" as="geometry" />
        </mxCell>
        <mxCell id="XQCfGJK_gv0JmEeynuYQ-241" value="" style="shape=umlActor;verticalLabelPosition=bottom;verticalAlign=top;html=1;outlineConnect=0;fillColor=#ffe6cc;strokeColor=#d79b00;" vertex="1" parent="XQCfGJK_gv0JmEeynuYQ-101">
          <mxGeometry x="1066" y="598.75" width="30" height="60" as="geometry" />
        </mxCell>
        <mxCell id="XQCfGJK_gv0JmEeynuYQ-345" style="edgeStyle=orthogonalEdgeStyle;rounded=0;orthogonalLoop=1;jettySize=auto;html=1;exitX=1;exitY=0.5;exitDx=0;exitDy=0;entryX=0;entryY=0.5;entryDx=0;entryDy=0;" edge="1" parent="XQCfGJK_gv0JmEeynuYQ-101" source="XQCfGJK_gv0JmEeynuYQ-242" target="XQCfGJK_gv0JmEeynuYQ-343">
          <mxGeometry relative="1" as="geometry" />
        </mxCell>
        <mxCell id="XQCfGJK_gv0JmEeynuYQ-242" value="&lt;b&gt;&lt;u&gt;HABILITA EL FORMULARIO DE CARGAS SUELTAS&lt;/u&gt;&lt;/b&gt;" style="rounded=0;whiteSpace=wrap;html=1;fillColor=#ffe6cc;strokeColor=#d79b00;" vertex="1" parent="XQCfGJK_gv0JmEeynuYQ-101">
          <mxGeometry x="1140" y="513.75" width="180" height="47.5" as="geometry" />
        </mxCell>
        <mxCell id="XQCfGJK_gv0JmEeynuYQ-344" style="edgeStyle=orthogonalEdgeStyle;rounded=0;orthogonalLoop=1;jettySize=auto;html=1;exitX=1;exitY=0.5;exitDx=0;exitDy=0;entryX=0.5;entryY=1;entryDx=0;entryDy=0;" edge="1" parent="XQCfGJK_gv0JmEeynuYQ-101" source="XQCfGJK_gv0JmEeynuYQ-243" target="XQCfGJK_gv0JmEeynuYQ-343">
          <mxGeometry relative="1" as="geometry" />
        </mxCell>
        <mxCell id="XQCfGJK_gv0JmEeynuYQ-243" value="&lt;b&gt;&lt;u&gt;HABILITA EL FORMULARIO DE CARGAS CONTERIZADAS&lt;/u&gt;&lt;/b&gt;" style="rounded=0;whiteSpace=wrap;html=1;fillColor=#ffe6cc;strokeColor=#d79b00;" vertex="1" parent="XQCfGJK_gv0JmEeynuYQ-101">
          <mxGeometry x="1120" y="594.38" width="230" height="68.75" as="geometry" />
        </mxCell>
        <mxCell id="XQCfGJK_gv0JmEeynuYQ-331" style="edgeStyle=orthogonalEdgeStyle;rounded=0;orthogonalLoop=1;jettySize=auto;html=1;exitX=0.5;exitY=0.5;exitDx=0;exitDy=0;exitPerimeter=0;entryX=0.5;entryY=0;entryDx=0;entryDy=0;" edge="1" parent="XQCfGJK_gv0JmEeynuYQ-101" source="XQCfGJK_gv0JmEeynuYQ-246" target="XQCfGJK_gv0JmEeynuYQ-330">
          <mxGeometry relative="1" as="geometry" />
        </mxCell>
        <mxCell id="XQCfGJK_gv0JmEeynuYQ-246" value="" style="shape=umlActor;verticalLabelPosition=bottom;verticalAlign=top;html=1;outlineConnect=0;fillColor=#ffe6cc;strokeColor=#d79b00;" vertex="1" parent="XQCfGJK_gv0JmEeynuYQ-101">
          <mxGeometry x="1540" y="1540.0000000000002" width="30" height="60" as="geometry" />
        </mxCell>
        <mxCell id="XQCfGJK_gv0JmEeynuYQ-247" value="&lt;b&gt;&lt;u&gt;MUESTRA TARIFA PREVIAMENTE DADA DE ALTA Y AUTORIZADA POR JEFE DE CONTABILIDAD&lt;/u&gt;&lt;/b&gt;" style="rounded=0;whiteSpace=wrap;html=1;fillColor=#ffe6cc;strokeColor=#d79b00;" vertex="1" parent="XQCfGJK_gv0JmEeynuYQ-101">
          <mxGeometry x="1440" y="1800" width="230" height="68.75" as="geometry" />
        </mxCell>
        <mxCell id="XQCfGJK_gv0JmEeynuYQ-254" style="edgeStyle=orthogonalEdgeStyle;rounded=1;orthogonalLoop=1;jettySize=auto;html=1;entryX=1;entryY=0.5;entryDx=0;entryDy=0;curved=0;" edge="1" parent="XQCfGJK_gv0JmEeynuYQ-101" source="XQCfGJK_gv0JmEeynuYQ-251" target="XQCfGJK_gv0JmEeynuYQ-253">
          <mxGeometry relative="1" as="geometry">
            <mxPoint x="1360" y="1290" as="sourcePoint" />
          </mxGeometry>
        </mxCell>
        <mxCell id="XQCfGJK_gv0JmEeynuYQ-251" value="" style="shape=umlActor;verticalLabelPosition=bottom;verticalAlign=top;html=1;outlineConnect=0;fillColor=#ffe6cc;strokeColor=#d79b00;" vertex="1" parent="XQCfGJK_gv0JmEeynuYQ-101">
          <mxGeometry x="1290" y="1270" width="30" height="60" as="geometry" />
        </mxCell>
        <mxCell id="XQCfGJK_gv0JmEeynuYQ-258" style="edgeStyle=orthogonalEdgeStyle;rounded=1;orthogonalLoop=1;jettySize=auto;html=1;exitX=0.5;exitY=0;exitDx=0;exitDy=0;entryX=1;entryY=0.5;entryDx=0;entryDy=0;curved=0;" edge="1" parent="XQCfGJK_gv0JmEeynuYQ-101" source="XQCfGJK_gv0JmEeynuYQ-253" target="XQCfGJK_gv0JmEeynuYQ-257">
          <mxGeometry relative="1" as="geometry" />
        </mxCell>
        <mxCell id="XQCfGJK_gv0JmEeynuYQ-253" value="&lt;b&gt;&lt;u&gt;ADVIERTE AL USUARIO DE TARIFA NO REGISTRADA&lt;/u&gt;&lt;/b&gt;" style="rounded=0;whiteSpace=wrap;html=1;fillColor=#ffe6cc;strokeColor=#d79b00;" vertex="1" parent="XQCfGJK_gv0JmEeynuYQ-101">
          <mxGeometry x="1163.5" y="1520" width="230" height="68.75" as="geometry" />
        </mxCell>
        <mxCell id="XQCfGJK_gv0JmEeynuYQ-257" value="&lt;b&gt;&lt;u&gt;ABRE INTERFAZ PARA CREAR UNA NUEVA TARIFA&lt;/u&gt;&lt;/b&gt;" style="rounded=0;whiteSpace=wrap;html=1;fillColor=#ffe6cc;strokeColor=#d79b00;" vertex="1" parent="XQCfGJK_gv0JmEeynuYQ-101">
          <mxGeometry x="966" y="1640" width="230" height="68.75" as="geometry" />
        </mxCell>
        <mxCell id="XQCfGJK_gv0JmEeynuYQ-274" style="edgeStyle=orthogonalEdgeStyle;rounded=0;orthogonalLoop=1;jettySize=auto;html=1;exitX=0.5;exitY=0;exitDx=0;exitDy=0;exitPerimeter=0;" edge="1" parent="XQCfGJK_gv0JmEeynuYQ-101" source="XQCfGJK_gv0JmEeynuYQ-259" target="XQCfGJK_gv0JmEeynuYQ-266">
          <mxGeometry relative="1" as="geometry" />
        </mxCell>
        <mxCell id="XQCfGJK_gv0JmEeynuYQ-259" value="" style="shape=umlActor;verticalLabelPosition=bottom;verticalAlign=top;html=1;outlineConnect=0;fillColor=#dae8fc;strokeColor=#6c8ebf;" vertex="1" parent="XQCfGJK_gv0JmEeynuYQ-101">
          <mxGeometry x="1066" y="1570.25" width="30" height="60" as="geometry" />
        </mxCell>
        <mxCell id="XQCfGJK_gv0JmEeynuYQ-263" style="edgeStyle=orthogonalEdgeStyle;rounded=0;orthogonalLoop=1;jettySize=auto;html=1;exitX=0.5;exitY=0;exitDx=0;exitDy=0;entryX=0.5;entryY=0.5;entryDx=0;entryDy=0;entryPerimeter=0;" edge="1" parent="XQCfGJK_gv0JmEeynuYQ-101" source="XQCfGJK_gv0JmEeynuYQ-257" target="XQCfGJK_gv0JmEeynuYQ-259">
          <mxGeometry relative="1" as="geometry" />
        </mxCell>
        <mxCell id="XQCfGJK_gv0JmEeynuYQ-277" style="edgeStyle=orthogonalEdgeStyle;rounded=1;orthogonalLoop=1;jettySize=auto;html=1;exitX=0.5;exitY=0;exitDx=0;exitDy=0;curved=0;" edge="1" parent="XQCfGJK_gv0JmEeynuYQ-101" source="XQCfGJK_gv0JmEeynuYQ-265" target="XQCfGJK_gv0JmEeynuYQ-275">
          <mxGeometry relative="1" as="geometry" />
        </mxCell>
        <mxCell id="XQCfGJK_gv0JmEeynuYQ-265" value="&lt;b&gt;&lt;u&gt;SELECCIONA EL TRANSPORTISTA QUE APLICARA LA TARIFA&lt;/u&gt;&lt;/b&gt;" style="rounded=0;whiteSpace=wrap;html=1;fillColor=#dae8fc;strokeColor=#6c8ebf;align=center;" vertex="1" parent="XQCfGJK_gv0JmEeynuYQ-101">
          <mxGeometry x="759.5" y="1340" width="180" height="90" as="geometry" />
        </mxCell>
        <mxCell id="XQCfGJK_gv0JmEeynuYQ-267" style="edgeStyle=orthogonalEdgeStyle;rounded=1;orthogonalLoop=1;jettySize=auto;html=1;exitX=0;exitY=0.5;exitDx=0;exitDy=0;entryX=0.5;entryY=1;entryDx=0;entryDy=0;curved=0;" edge="1" parent="XQCfGJK_gv0JmEeynuYQ-101" source="XQCfGJK_gv0JmEeynuYQ-266" target="XQCfGJK_gv0JmEeynuYQ-265">
          <mxGeometry relative="1" as="geometry" />
        </mxCell>
        <mxCell id="XQCfGJK_gv0JmEeynuYQ-272" value="NO" style="edgeLabel;html=1;align=center;verticalAlign=middle;resizable=0;points=[];" vertex="1" connectable="0" parent="XQCfGJK_gv0JmEeynuYQ-267">
          <mxGeometry x="0.0946" y="2" relative="1" as="geometry">
            <mxPoint x="27" y="-2" as="offset" />
          </mxGeometry>
        </mxCell>
        <mxCell id="XQCfGJK_gv0JmEeynuYQ-270" style="edgeStyle=orthogonalEdgeStyle;rounded=1;orthogonalLoop=1;jettySize=auto;html=1;exitX=1;exitY=0.5;exitDx=0;exitDy=0;entryX=0.5;entryY=1;entryDx=0;entryDy=0;strokeColor=default;curved=0;" edge="1" parent="XQCfGJK_gv0JmEeynuYQ-101" source="XQCfGJK_gv0JmEeynuYQ-266" target="XQCfGJK_gv0JmEeynuYQ-269">
          <mxGeometry relative="1" as="geometry" />
        </mxCell>
        <mxCell id="XQCfGJK_gv0JmEeynuYQ-273" value="SI" style="edgeLabel;html=1;align=center;verticalAlign=middle;resizable=0;points=[];" vertex="1" connectable="0" parent="XQCfGJK_gv0JmEeynuYQ-270">
          <mxGeometry x="-0.211" y="1" relative="1" as="geometry">
            <mxPoint x="-30" y="1" as="offset" />
          </mxGeometry>
        </mxCell>
        <mxCell id="XQCfGJK_gv0JmEeynuYQ-266" value="¿La Tarifa&amp;nbsp;&lt;div&gt;aplica todos los Transportistas?&lt;/div&gt;" style="rhombus;whiteSpace=wrap;html=1;rounded=0;strokeColor=#6c8ebf;align=center;verticalAlign=middle;fontFamily=Helvetica;fontSize=12;fontColor=default;fillColor=#dae8fc;" vertex="1" parent="XQCfGJK_gv0JmEeynuYQ-101">
          <mxGeometry x="1001" y="1410" width="160" height="133" as="geometry" />
        </mxCell>
        <mxCell id="XQCfGJK_gv0JmEeynuYQ-276" style="edgeStyle=orthogonalEdgeStyle;rounded=1;orthogonalLoop=1;jettySize=auto;html=1;entryX=0.5;entryY=1;entryDx=0;entryDy=0;curved=0;exitX=0;exitY=0.5;exitDx=0;exitDy=0;" edge="1" parent="XQCfGJK_gv0JmEeynuYQ-101" source="XQCfGJK_gv0JmEeynuYQ-269" target="XQCfGJK_gv0JmEeynuYQ-275">
          <mxGeometry relative="1" as="geometry">
            <mxPoint x="1020" y="1320" as="sourcePoint" />
            <Array as="points">
              <mxPoint x="1053" y="1330" />
              <mxPoint x="920" y="1330" />
              <mxPoint x="920" y="1305" />
            </Array>
          </mxGeometry>
        </mxCell>
        <mxCell id="XQCfGJK_gv0JmEeynuYQ-269" value="&lt;b&gt;&lt;u&gt;SELECCIONA EL TRANSPORTISTA QUE APLICARA LA TARIFA&lt;/u&gt;&lt;/b&gt;" style="rounded=0;whiteSpace=wrap;html=1;fillColor=#dae8fc;strokeColor=#6c8ebf;align=center;" vertex="1" parent="XQCfGJK_gv0JmEeynuYQ-101">
          <mxGeometry x="1040" y="1290" width="180" height="90" as="geometry" />
        </mxCell>
        <mxCell id="XQCfGJK_gv0JmEeynuYQ-279" style="edgeStyle=orthogonalEdgeStyle;rounded=1;orthogonalLoop=1;jettySize=auto;html=1;exitX=1;exitY=0.5;exitDx=0;exitDy=0;entryX=0;entryY=0.5;entryDx=0;entryDy=0;curved=0;" edge="1" parent="XQCfGJK_gv0JmEeynuYQ-101" source="XQCfGJK_gv0JmEeynuYQ-275" target="XQCfGJK_gv0JmEeynuYQ-278">
          <mxGeometry relative="1" as="geometry" />
        </mxCell>
        <mxCell id="XQCfGJK_gv0JmEeynuYQ-281" style="edgeStyle=orthogonalEdgeStyle;rounded=1;orthogonalLoop=1;jettySize=auto;html=1;exitX=0.5;exitY=0;exitDx=0;exitDy=0;entryX=0.5;entryY=1;entryDx=0;entryDy=0;curved=0;" edge="1" parent="XQCfGJK_gv0JmEeynuYQ-101" source="XQCfGJK_gv0JmEeynuYQ-275" target="XQCfGJK_gv0JmEeynuYQ-280">
          <mxGeometry relative="1" as="geometry" />
        </mxCell>
        <mxCell id="XQCfGJK_gv0JmEeynuYQ-275" value="Tipo de Carga&amp;nbsp;&lt;div&gt;de la Referencia&lt;/div&gt;" style="rhombus;whiteSpace=wrap;html=1;rounded=0;strokeColor=#6c8ebf;align=center;verticalAlign=middle;fontFamily=Helvetica;fontSize=12;fontColor=default;fillColor=#dae8fc;" vertex="1" parent="XQCfGJK_gv0JmEeynuYQ-101">
          <mxGeometry x="767.5" y="1170" width="170" height="135" as="geometry" />
        </mxCell>
        <mxCell id="XQCfGJK_gv0JmEeynuYQ-285" style="edgeStyle=orthogonalEdgeStyle;rounded=0;orthogonalLoop=1;jettySize=auto;html=1;exitX=0.5;exitY=0;exitDx=0;exitDy=0;" edge="1" parent="XQCfGJK_gv0JmEeynuYQ-101" source="XQCfGJK_gv0JmEeynuYQ-278" target="XQCfGJK_gv0JmEeynuYQ-284">
          <mxGeometry relative="1" as="geometry" />
        </mxCell>
        <mxCell id="XQCfGJK_gv0JmEeynuYQ-278" value="&lt;u&gt;&lt;b&gt;SELECCIONA&amp;nbsp;&lt;/b&gt;&lt;/u&gt;&lt;div&gt;&lt;u&gt;&lt;b&gt;CARGA SUELTA&lt;/b&gt;&lt;/u&gt;&lt;/div&gt;" style="rounded=0;whiteSpace=wrap;html=1;fillColor=#dae8fc;strokeColor=#6c8ebf;" vertex="1" parent="XQCfGJK_gv0JmEeynuYQ-101">
          <mxGeometry x="983.5" y="1213.75" width="180" height="47.5" as="geometry" />
        </mxCell>
        <mxCell id="XQCfGJK_gv0JmEeynuYQ-283" style="edgeStyle=orthogonalEdgeStyle;rounded=0;orthogonalLoop=1;jettySize=auto;html=1;exitX=0.5;exitY=0;exitDx=0;exitDy=0;" edge="1" parent="XQCfGJK_gv0JmEeynuYQ-101" source="XQCfGJK_gv0JmEeynuYQ-280" target="XQCfGJK_gv0JmEeynuYQ-282">
          <mxGeometry relative="1" as="geometry" />
        </mxCell>
        <mxCell id="XQCfGJK_gv0JmEeynuYQ-280" value="&lt;u&gt;&lt;b&gt;SELECCIONA&amp;nbsp;&lt;/b&gt;&lt;/u&gt;&lt;div&gt;&lt;u&gt;&lt;b&gt;CARGA CONTENERIZADA&lt;/b&gt;&lt;/u&gt;&lt;/div&gt;" style="rounded=0;whiteSpace=wrap;html=1;fillColor=#dae8fc;strokeColor=#6c8ebf;" vertex="1" parent="XQCfGJK_gv0JmEeynuYQ-101">
          <mxGeometry x="762.5" y="1081.88" width="180" height="47.5" as="geometry" />
        </mxCell>
        <mxCell id="XQCfGJK_gv0JmEeynuYQ-287" style="edgeStyle=orthogonalEdgeStyle;rounded=0;orthogonalLoop=1;jettySize=auto;html=1;exitX=0.5;exitY=0;exitDx=0;exitDy=0;entryX=0.5;entryY=1;entryDx=0;entryDy=0;" edge="1" parent="XQCfGJK_gv0JmEeynuYQ-101" source="XQCfGJK_gv0JmEeynuYQ-282" target="XQCfGJK_gv0JmEeynuYQ-286">
          <mxGeometry relative="1" as="geometry" />
        </mxCell>
        <mxCell id="XQCfGJK_gv0JmEeynuYQ-282" value="&lt;u&gt;&lt;b&gt;SELECCIONA EL TIPO DE UNIDAD&lt;/b&gt;&lt;/u&gt;&lt;div&gt;&lt;span style=&quot;background-color: transparent; color: light-dark(rgb(0, 0, 0), rgb(255, 255, 255));&quot;&gt;Sencillo&lt;/span&gt;&lt;br&gt;&lt;span style=&quot;background-color: transparent; color: light-dark(rgb(0, 0, 0), rgb(255, 255, 255));&quot;&gt;Full&lt;/span&gt;&lt;/div&gt;" style="rounded=0;whiteSpace=wrap;html=1;fillColor=#dae8fc;strokeColor=#6c8ebf;align=center;" vertex="1" parent="XQCfGJK_gv0JmEeynuYQ-101">
          <mxGeometry x="762.5" y="965" width="180" height="90" as="geometry" />
        </mxCell>
        <mxCell id="XQCfGJK_gv0JmEeynuYQ-290" style="edgeStyle=orthogonalEdgeStyle;rounded=1;orthogonalLoop=1;jettySize=auto;html=1;exitX=0.5;exitY=0;exitDx=0;exitDy=0;entryX=1;entryY=0.5;entryDx=0;entryDy=0;curved=0;" edge="1" parent="XQCfGJK_gv0JmEeynuYQ-101" source="XQCfGJK_gv0JmEeynuYQ-284" target="XQCfGJK_gv0JmEeynuYQ-286">
          <mxGeometry relative="1" as="geometry">
            <Array as="points">
              <mxPoint x="1073.5" y="1050" />
              <mxPoint x="983.5" y="1050" />
              <mxPoint x="983.5" y="910" />
            </Array>
          </mxGeometry>
        </mxCell>
        <mxCell id="XQCfGJK_gv0JmEeynuYQ-284" value="&lt;u&gt;&lt;b&gt;SELECCIONA EL TIPO DE UNIDAD&lt;/b&gt;&lt;/u&gt;&lt;div&gt;&lt;span style=&quot;background-color: transparent; color: light-dark(rgb(0, 0, 0), rgb(255, 255, 255));&quot;&gt;Carga Suelta&lt;/span&gt;&lt;/div&gt;" style="rounded=0;whiteSpace=wrap;html=1;fillColor=#dae8fc;strokeColor=#6c8ebf;align=center;" vertex="1" parent="XQCfGJK_gv0JmEeynuYQ-101">
          <mxGeometry x="983.5" y="1090" width="180" height="90" as="geometry" />
        </mxCell>
        <mxCell id="XQCfGJK_gv0JmEeynuYQ-289" style="edgeStyle=orthogonalEdgeStyle;rounded=0;orthogonalLoop=1;jettySize=auto;html=1;exitX=0.5;exitY=0;exitDx=0;exitDy=0;" edge="1" parent="XQCfGJK_gv0JmEeynuYQ-101" source="XQCfGJK_gv0JmEeynuYQ-286" target="XQCfGJK_gv0JmEeynuYQ-288">
          <mxGeometry relative="1" as="geometry" />
        </mxCell>
        <mxCell id="XQCfGJK_gv0JmEeynuYQ-286" value="&lt;u&gt;&lt;b&gt;SELECCIONA EL DESTINO&lt;/b&gt;&lt;/u&gt; al que llegara la Operación" style="rounded=0;whiteSpace=wrap;html=1;fillColor=#dae8fc;strokeColor=#6c8ebf;" vertex="1" parent="XQCfGJK_gv0JmEeynuYQ-101">
          <mxGeometry x="762.5" y="880" width="180" height="60" as="geometry" />
        </mxCell>
        <mxCell id="XQCfGJK_gv0JmEeynuYQ-292" style="edgeStyle=orthogonalEdgeStyle;rounded=0;orthogonalLoop=1;jettySize=auto;html=1;exitX=0.5;exitY=0;exitDx=0;exitDy=0;" edge="1" parent="XQCfGJK_gv0JmEeynuYQ-101" source="XQCfGJK_gv0JmEeynuYQ-288" target="XQCfGJK_gv0JmEeynuYQ-291">
          <mxGeometry relative="1" as="geometry" />
        </mxCell>
        <mxCell id="XQCfGJK_gv0JmEeynuYQ-288" value="&lt;u&gt;&lt;b&gt;SELECCIONA SI LA OPERACION ES IMO&lt;/b&gt;&lt;/u&gt;" style="rounded=0;whiteSpace=wrap;html=1;fillColor=#dae8fc;strokeColor=#6c8ebf;" vertex="1" parent="XQCfGJK_gv0JmEeynuYQ-101">
          <mxGeometry x="762.5" y="790" width="180" height="60" as="geometry" />
        </mxCell>
        <mxCell id="XQCfGJK_gv0JmEeynuYQ-305" style="edgeStyle=orthogonalEdgeStyle;rounded=0;orthogonalLoop=1;jettySize=auto;html=1;exitX=0;exitY=0.5;exitDx=0;exitDy=0;entryX=1;entryY=0.5;entryDx=0;entryDy=0;" edge="1" parent="XQCfGJK_gv0JmEeynuYQ-101" source="XQCfGJK_gv0JmEeynuYQ-291" target="XQCfGJK_gv0JmEeynuYQ-304">
          <mxGeometry relative="1" as="geometry" />
        </mxCell>
        <mxCell id="XQCfGJK_gv0JmEeynuYQ-291" value="&lt;b&gt;&lt;u&gt;INGRESA MONTO DE FLETE Y DE PISTAS&lt;/u&gt;&lt;/b&gt;" style="rounded=0;whiteSpace=wrap;html=1;fillColor=#dae8fc;strokeColor=#6c8ebf;" vertex="1" parent="XQCfGJK_gv0JmEeynuYQ-101">
          <mxGeometry x="762.5" y="700" width="180" height="60" as="geometry" />
        </mxCell>
        <mxCell id="XQCfGJK_gv0JmEeynuYQ-299" style="edgeStyle=orthogonalEdgeStyle;rounded=1;orthogonalLoop=1;jettySize=auto;html=1;exitX=0.5;exitY=1;exitDx=0;exitDy=0;curved=0;entryX=0.5;entryY=0;entryDx=0;entryDy=0;" edge="1" parent="XQCfGJK_gv0JmEeynuYQ-101" source="XQCfGJK_gv0JmEeynuYQ-293" target="XQCfGJK_gv0JmEeynuYQ-206">
          <mxGeometry relative="1" as="geometry">
            <Array as="points">
              <mxPoint x="1295" y="1204" />
              <mxPoint x="1410" y="1204" />
              <mxPoint x="1410" y="1270" />
              <mxPoint x="1555" y="1270" />
            </Array>
          </mxGeometry>
        </mxCell>
        <mxCell id="XQCfGJK_gv0JmEeynuYQ-293" value="&lt;b&gt;&lt;u&gt;HABILITA EL FORMULARIO DE CARGAS CONTERIZADAS&lt;/u&gt;&lt;/b&gt;" style="rounded=0;whiteSpace=wrap;html=1;fillColor=#ffe6cc;strokeColor=#d79b00;" vertex="1" parent="XQCfGJK_gv0JmEeynuYQ-101">
          <mxGeometry x="1180" y="1060" width="230" height="68.75" as="geometry" />
        </mxCell>
        <mxCell id="XQCfGJK_gv0JmEeynuYQ-295" style="edgeStyle=orthogonalEdgeStyle;rounded=0;orthogonalLoop=1;jettySize=auto;html=1;exitX=0;exitY=0.5;exitDx=0;exitDy=0;entryX=0.5;entryY=0.5;entryDx=0;entryDy=0;entryPerimeter=0;" edge="1" parent="XQCfGJK_gv0JmEeynuYQ-101" source="XQCfGJK_gv0JmEeynuYQ-206" target="XQCfGJK_gv0JmEeynuYQ-251">
          <mxGeometry relative="1" as="geometry" />
        </mxCell>
        <mxCell id="XQCfGJK_gv0JmEeynuYQ-300" style="edgeStyle=orthogonalEdgeStyle;rounded=1;orthogonalLoop=1;jettySize=auto;html=1;exitX=0.5;exitY=1;exitDx=0;exitDy=0;entryX=0.5;entryY=0;entryDx=0;entryDy=0;curved=0;" edge="1" parent="XQCfGJK_gv0JmEeynuYQ-101" source="XQCfGJK_gv0JmEeynuYQ-296" target="XQCfGJK_gv0JmEeynuYQ-206">
          <mxGeometry relative="1" as="geometry">
            <Array as="points">
              <mxPoint x="1570" y="1280" />
              <mxPoint x="1555" y="1280" />
            </Array>
          </mxGeometry>
        </mxCell>
        <mxCell id="XQCfGJK_gv0JmEeynuYQ-296" value="&lt;b&gt;&lt;u&gt;HABILITA EL FORMULARIO DE CARGAS SUELTAS&lt;/u&gt;&lt;/b&gt;" style="rounded=0;whiteSpace=wrap;html=1;fillColor=#ffe6cc;strokeColor=#d79b00;" vertex="1" parent="XQCfGJK_gv0JmEeynuYQ-101">
          <mxGeometry x="1455" y="1180" width="230" height="68.75" as="geometry" />
        </mxCell>
        <mxCell id="XQCfGJK_gv0JmEeynuYQ-314" style="edgeStyle=orthogonalEdgeStyle;rounded=0;orthogonalLoop=1;jettySize=auto;html=1;exitX=0;exitY=0.5;exitDx=0;exitDy=0;" edge="1" parent="XQCfGJK_gv0JmEeynuYQ-101" source="XQCfGJK_gv0JmEeynuYQ-304" target="XQCfGJK_gv0JmEeynuYQ-313">
          <mxGeometry relative="1" as="geometry" />
        </mxCell>
        <mxCell id="XQCfGJK_gv0JmEeynuYQ-304" value="&lt;b&gt;&lt;u&gt;GUARDA NUEVA TARIFA&lt;/u&gt;&lt;/b&gt;" style="rounded=0;whiteSpace=wrap;html=1;fillColor=#dae8fc;strokeColor=#6c8ebf;" vertex="1" parent="XQCfGJK_gv0JmEeynuYQ-101">
          <mxGeometry x="550" y="700" width="180" height="60" as="geometry" />
        </mxCell>
        <mxCell id="XQCfGJK_gv0JmEeynuYQ-312" style="edgeStyle=orthogonalEdgeStyle;rounded=0;orthogonalLoop=1;jettySize=auto;html=1;exitX=0.5;exitY=0.5;exitDx=0;exitDy=0;exitPerimeter=0;entryX=0.5;entryY=0;entryDx=0;entryDy=0;" edge="1" parent="XQCfGJK_gv0JmEeynuYQ-101" source="XQCfGJK_gv0JmEeynuYQ-309" target="XQCfGJK_gv0JmEeynuYQ-311">
          <mxGeometry relative="1" as="geometry" />
        </mxCell>
        <mxCell id="XQCfGJK_gv0JmEeynuYQ-309" value="" style="shape=umlActor;verticalLabelPosition=bottom;verticalAlign=top;html=1;outlineConnect=0;fillColor=#e1d5e7;strokeColor=#9673a6;" vertex="1" parent="XQCfGJK_gv0JmEeynuYQ-101">
          <mxGeometry x="625" y="790" width="30" height="60" as="geometry" />
        </mxCell>
        <mxCell id="XQCfGJK_gv0JmEeynuYQ-310" style="edgeStyle=orthogonalEdgeStyle;rounded=0;orthogonalLoop=1;jettySize=auto;html=1;exitX=0.5;exitY=1;exitDx=0;exitDy=0;entryX=0.5;entryY=0;entryDx=0;entryDy=0;entryPerimeter=0;" edge="1" parent="XQCfGJK_gv0JmEeynuYQ-101" source="XQCfGJK_gv0JmEeynuYQ-304" target="XQCfGJK_gv0JmEeynuYQ-309">
          <mxGeometry relative="1" as="geometry" />
        </mxCell>
        <mxCell id="XQCfGJK_gv0JmEeynuYQ-317" style="edgeStyle=orthogonalEdgeStyle;rounded=0;orthogonalLoop=1;jettySize=auto;html=1;exitX=0.5;exitY=1;exitDx=0;exitDy=0;entryX=0.5;entryY=0;entryDx=0;entryDy=0;entryPerimeter=0;" edge="1" parent="XQCfGJK_gv0JmEeynuYQ-101" source="XQCfGJK_gv0JmEeynuYQ-311" target="XQCfGJK_gv0JmEeynuYQ-318">
          <mxGeometry relative="1" as="geometry">
            <mxPoint x="640.0434782608697" y="1039.9999999999998" as="targetPoint" />
          </mxGeometry>
        </mxCell>
        <mxCell id="XQCfGJK_gv0JmEeynuYQ-350" value="SI" style="edgeLabel;html=1;align=center;verticalAlign=middle;resizable=0;points=[];" vertex="1" connectable="0" parent="XQCfGJK_gv0JmEeynuYQ-317">
          <mxGeometry x="-0.1702" relative="1" as="geometry">
            <mxPoint as="offset" />
          </mxGeometry>
        </mxCell>
        <mxCell id="XQCfGJK_gv0JmEeynuYQ-348" style="edgeStyle=orthogonalEdgeStyle;rounded=0;orthogonalLoop=1;jettySize=auto;html=1;exitX=0;exitY=0.5;exitDx=0;exitDy=0;entryX=1;entryY=0.5;entryDx=0;entryDy=0;" edge="1" parent="XQCfGJK_gv0JmEeynuYQ-101" source="XQCfGJK_gv0JmEeynuYQ-311" target="XQCfGJK_gv0JmEeynuYQ-347">
          <mxGeometry relative="1" as="geometry" />
        </mxCell>
        <mxCell id="XQCfGJK_gv0JmEeynuYQ-349" value="NO" style="edgeLabel;html=1;align=center;verticalAlign=middle;resizable=0;points=[];" vertex="1" connectable="0" parent="XQCfGJK_gv0JmEeynuYQ-348">
          <mxGeometry x="-0.3906" y="-1" relative="1" as="geometry">
            <mxPoint as="offset" />
          </mxGeometry>
        </mxCell>
        <mxCell id="XQCfGJK_gv0JmEeynuYQ-311" value="&lt;span style=&quot;background-color: transparent; color: light-dark(rgb(0, 0, 0), rgb(255, 255, 255));&quot;&gt;¿Tarifa empieza&lt;/span&gt;&lt;div&gt;&lt;span style=&quot;background-color: transparent; color: light-dark(rgb(0, 0, 0), rgb(255, 255, 255));&quot;&gt;proceso&amp;nbsp;&lt;/span&gt;&lt;/div&gt;&lt;div&gt;&lt;span style=&quot;background-color: transparent; color: light-dark(rgb(0, 0, 0), rgb(255, 255, 255));&quot;&gt;de autorización?&lt;/span&gt;&lt;/div&gt;" style="rhombus;whiteSpace=wrap;html=1;rounded=0;strokeColor=#9673a6;align=center;verticalAlign=middle;fontFamily=Helvetica;fontSize=12;fillColor=#e1d5e7;" vertex="1" parent="XQCfGJK_gv0JmEeynuYQ-101">
          <mxGeometry x="555" y="862.75" width="170" height="135" as="geometry" />
        </mxCell>
        <mxCell id="XQCfGJK_gv0JmEeynuYQ-313" value="ESTADO&lt;br&gt;TARIFA CREADA NO AITORIZADA" style="shape=document;whiteSpace=wrap;html=1;boundedLbl=1;fillColor=#ffff88;strokeColor=#36393d;" vertex="1" parent="XQCfGJK_gv0JmEeynuYQ-101">
          <mxGeometry x="434" y="610" width="160" height="70" as="geometry" />
        </mxCell>
        <mxCell id="XQCfGJK_gv0JmEeynuYQ-315" value="SISROD" style="shape=cylinder3;whiteSpace=wrap;html=1;boundedLbl=1;backgroundOutline=1;size=15;fillColor=#fff2cc;strokeColor=#d6b656;" vertex="1" parent="XQCfGJK_gv0JmEeynuYQ-101">
          <mxGeometry x="555" y="507.5" width="60" height="80" as="geometry" />
        </mxCell>
        <mxCell id="XQCfGJK_gv0JmEeynuYQ-316" style="edgeStyle=orthogonalEdgeStyle;rounded=1;orthogonalLoop=1;jettySize=auto;html=1;exitX=0.5;exitY=0;exitDx=0;exitDy=0;entryX=1;entryY=0.5;entryDx=0;entryDy=0;entryPerimeter=0;curved=0;dashed=1;" edge="1" parent="XQCfGJK_gv0JmEeynuYQ-101" source="XQCfGJK_gv0JmEeynuYQ-304" target="XQCfGJK_gv0JmEeynuYQ-315">
          <mxGeometry relative="1" as="geometry" />
        </mxCell>
        <mxCell id="XQCfGJK_gv0JmEeynuYQ-320" style="edgeStyle=orthogonalEdgeStyle;rounded=0;orthogonalLoop=1;jettySize=auto;html=1;exitX=0.5;exitY=0.5;exitDx=0;exitDy=0;exitPerimeter=0;" edge="1" parent="XQCfGJK_gv0JmEeynuYQ-101" source="XQCfGJK_gv0JmEeynuYQ-318" target="XQCfGJK_gv0JmEeynuYQ-319">
          <mxGeometry relative="1" as="geometry" />
        </mxCell>
        <mxCell id="XQCfGJK_gv0JmEeynuYQ-318" value="" style="shape=umlActor;verticalLabelPosition=bottom;verticalAlign=top;html=1;outlineConnect=0;fillColor=#d5e8d4;strokeColor=#82b366;" vertex="1" parent="XQCfGJK_gv0JmEeynuYQ-101">
          <mxGeometry x="625" y="1053.13" width="30" height="60" as="geometry" />
        </mxCell>
        <mxCell id="XQCfGJK_gv0JmEeynuYQ-321" style="edgeStyle=orthogonalEdgeStyle;rounded=0;orthogonalLoop=1;jettySize=auto;html=1;exitX=0.5;exitY=1;exitDx=0;exitDy=0;entryX=0.5;entryY=0;entryDx=0;entryDy=0;entryPerimeter=0;" edge="1" parent="XQCfGJK_gv0JmEeynuYQ-101" source="XQCfGJK_gv0JmEeynuYQ-319" target="XQCfGJK_gv0JmEeynuYQ-322">
          <mxGeometry relative="1" as="geometry">
            <mxPoint x="640.25" y="1211.25" as="targetPoint" />
          </mxGeometry>
        </mxCell>
        <mxCell id="XQCfGJK_gv0JmEeynuYQ-319" value="Dirección Autoriza Tarifa" style="rounded=0;whiteSpace=wrap;html=1;fillColor=#d5e8d4;strokeColor=#82b366;" vertex="1" parent="XQCfGJK_gv0JmEeynuYQ-101">
          <mxGeometry x="550" y="1131.25" width="180" height="47.5" as="geometry" />
        </mxCell>
        <mxCell id="XQCfGJK_gv0JmEeynuYQ-324" style="edgeStyle=orthogonalEdgeStyle;rounded=0;orthogonalLoop=1;jettySize=auto;html=1;exitX=0.5;exitY=0.5;exitDx=0;exitDy=0;exitPerimeter=0;" edge="1" parent="XQCfGJK_gv0JmEeynuYQ-101" source="XQCfGJK_gv0JmEeynuYQ-322" target="XQCfGJK_gv0JmEeynuYQ-323">
          <mxGeometry relative="1" as="geometry" />
        </mxCell>
        <mxCell id="XQCfGJK_gv0JmEeynuYQ-322" value="" style="shape=umlActor;verticalLabelPosition=bottom;verticalAlign=top;html=1;outlineConnect=0;fillColor=#e1d5e7;strokeColor=#9673a6;" vertex="1" parent="XQCfGJK_gv0JmEeynuYQ-101">
          <mxGeometry x="625" y="1211.25" width="30" height="60" as="geometry" />
        </mxCell>
        <mxCell id="XQCfGJK_gv0JmEeynuYQ-323" value="&lt;b&gt;&lt;u&gt;AUTORIZA TARIFA EN SISROD&lt;/u&gt;&lt;/b&gt;" style="rounded=0;whiteSpace=wrap;html=1;fillColor=#e1d5e7;strokeColor=#9673a6;" vertex="1" parent="XQCfGJK_gv0JmEeynuYQ-101">
          <mxGeometry x="550" y="1292.5" width="180" height="47.5" as="geometry" />
        </mxCell>
        <mxCell id="XQCfGJK_gv0JmEeynuYQ-325" style="edgeStyle=orthogonalEdgeStyle;rounded=0;orthogonalLoop=1;jettySize=auto;html=1;exitX=1;exitY=0.5;exitDx=0;exitDy=0;entryX=0.5;entryY=0.5;entryDx=0;entryDy=0;entryPerimeter=0;" edge="1" parent="XQCfGJK_gv0JmEeynuYQ-101" source="XQCfGJK_gv0JmEeynuYQ-217" target="XQCfGJK_gv0JmEeynuYQ-240">
          <mxGeometry relative="1" as="geometry" />
        </mxCell>
        <mxCell id="XQCfGJK_gv0JmEeynuYQ-326" style="edgeStyle=orthogonalEdgeStyle;rounded=0;orthogonalLoop=1;jettySize=auto;html=1;exitX=1;exitY=0.5;exitDx=0;exitDy=0;entryX=0.5;entryY=0.5;entryDx=0;entryDy=0;entryPerimeter=0;" edge="1" parent="XQCfGJK_gv0JmEeynuYQ-101" source="XQCfGJK_gv0JmEeynuYQ-219" target="XQCfGJK_gv0JmEeynuYQ-241">
          <mxGeometry relative="1" as="geometry" />
        </mxCell>
        <mxCell id="XQCfGJK_gv0JmEeynuYQ-332" style="edgeStyle=orthogonalEdgeStyle;rounded=0;orthogonalLoop=1;jettySize=auto;html=1;exitX=0.5;exitY=1;exitDx=0;exitDy=0;entryX=0.5;entryY=0;entryDx=0;entryDy=0;" edge="1" parent="XQCfGJK_gv0JmEeynuYQ-101" source="XQCfGJK_gv0JmEeynuYQ-330" target="XQCfGJK_gv0JmEeynuYQ-247">
          <mxGeometry relative="1" as="geometry" />
        </mxCell>
        <mxCell id="XQCfGJK_gv0JmEeynuYQ-339" value="SI" style="edgeLabel;html=1;align=center;verticalAlign=middle;resizable=0;points=[];" vertex="1" connectable="0" parent="XQCfGJK_gv0JmEeynuYQ-332">
          <mxGeometry x="-0.4263" y="-1" relative="1" as="geometry">
            <mxPoint as="offset" />
          </mxGeometry>
        </mxCell>
        <mxCell id="XQCfGJK_gv0JmEeynuYQ-330" value="Tarifa esta&amp;nbsp;&lt;div&gt;previamente&amp;nbsp;&lt;/div&gt;&lt;div&gt;autorizada&lt;/div&gt;" style="rhombus;whiteSpace=wrap;html=1;rounded=0;strokeColor=#d79b00;align=center;verticalAlign=middle;fontFamily=Helvetica;fontSize=12;fillColor=#ffe6cc;" vertex="1" parent="XQCfGJK_gv0JmEeynuYQ-101">
          <mxGeometry x="1490" y="1640" width="130" height="120" as="geometry" />
        </mxCell>
        <mxCell id="XQCfGJK_gv0JmEeynuYQ-337" style="edgeStyle=orthogonalEdgeStyle;rounded=0;orthogonalLoop=1;jettySize=auto;html=1;exitX=0.5;exitY=0.5;exitDx=0;exitDy=0;exitPerimeter=0;entryX=1;entryY=0.5;entryDx=0;entryDy=0;" edge="1" parent="XQCfGJK_gv0JmEeynuYQ-101" source="XQCfGJK_gv0JmEeynuYQ-334" target="XQCfGJK_gv0JmEeynuYQ-335">
          <mxGeometry relative="1" as="geometry" />
        </mxCell>
        <mxCell id="XQCfGJK_gv0JmEeynuYQ-334" value="" style="shape=umlActor;verticalLabelPosition=bottom;verticalAlign=top;html=1;outlineConnect=0;fillColor=#e1d5e7;strokeColor=#9673a6;" vertex="1" parent="XQCfGJK_gv0JmEeynuYQ-101">
          <mxGeometry x="1431" y="1670" width="30" height="60" as="geometry" />
        </mxCell>
        <mxCell id="XQCfGJK_gv0JmEeynuYQ-338" style="edgeStyle=orthogonalEdgeStyle;rounded=1;orthogonalLoop=1;jettySize=auto;html=1;exitX=0.5;exitY=0;exitDx=0;exitDy=0;entryX=0.5;entryY=0;entryDx=0;entryDy=0;curved=0;" edge="1" parent="XQCfGJK_gv0JmEeynuYQ-101" source="XQCfGJK_gv0JmEeynuYQ-335" target="XQCfGJK_gv0JmEeynuYQ-330">
          <mxGeometry relative="1" as="geometry" />
        </mxCell>
        <mxCell id="XQCfGJK_gv0JmEeynuYQ-357" value="SI" style="edgeLabel;html=1;align=center;verticalAlign=middle;resizable=0;points=[];" vertex="1" connectable="0" parent="XQCfGJK_gv0JmEeynuYQ-338">
          <mxGeometry x="0.0094" y="3" relative="1" as="geometry">
            <mxPoint as="offset" />
          </mxGeometry>
        </mxCell>
        <mxCell id="XQCfGJK_gv0JmEeynuYQ-335" value="&lt;b&gt;&lt;u&gt;¿AUTORIZA&amp;nbsp;&lt;/u&gt;&lt;/b&gt;&lt;div&gt;&lt;b&gt;&lt;u&gt;TARIFA?&lt;/u&gt;&lt;/b&gt;&lt;/div&gt;" style="rhombus;whiteSpace=wrap;html=1;rounded=0;strokeColor=#9673a6;align=center;verticalAlign=middle;fontFamily=Helvetica;fontSize=12;fillColor=#e1d5e7;" vertex="1" parent="XQCfGJK_gv0JmEeynuYQ-101">
          <mxGeometry x="1290" y="1640" width="130" height="120" as="geometry" />
        </mxCell>
        <mxCell id="XQCfGJK_gv0JmEeynuYQ-336" style="edgeStyle=orthogonalEdgeStyle;rounded=0;orthogonalLoop=1;jettySize=auto;html=1;exitX=0;exitY=0.5;exitDx=0;exitDy=0;entryX=0.5;entryY=0.5;entryDx=0;entryDy=0;entryPerimeter=0;" edge="1" parent="XQCfGJK_gv0JmEeynuYQ-101" source="XQCfGJK_gv0JmEeynuYQ-330" target="XQCfGJK_gv0JmEeynuYQ-334">
          <mxGeometry relative="1" as="geometry" />
        </mxCell>
        <mxCell id="XQCfGJK_gv0JmEeynuYQ-356" value="NO" style="edgeLabel;html=1;align=center;verticalAlign=middle;resizable=0;points=[];" vertex="1" connectable="0" parent="XQCfGJK_gv0JmEeynuYQ-336">
          <mxGeometry x="-0.1578" y="-1" relative="1" as="geometry">
            <mxPoint as="offset" />
          </mxGeometry>
        </mxCell>
        <mxCell id="XQCfGJK_gv0JmEeynuYQ-343" value="" style="ellipse;whiteSpace=wrap;html=1;aspect=fixed;" vertex="1" parent="XQCfGJK_gv0JmEeynuYQ-101">
          <mxGeometry x="1380" y="510.25" width="51" height="51" as="geometry" />
        </mxCell>
        <mxCell id="XQCfGJK_gv0JmEeynuYQ-355" style="edgeStyle=orthogonalEdgeStyle;rounded=0;orthogonalLoop=1;jettySize=auto;html=1;exitX=0.5;exitY=1;exitDx=0;exitDy=0;" edge="1" parent="XQCfGJK_gv0JmEeynuYQ-101" source="XQCfGJK_gv0JmEeynuYQ-346" target="XQCfGJK_gv0JmEeynuYQ-351">
          <mxGeometry relative="1" as="geometry" />
        </mxCell>
        <mxCell id="XQCfGJK_gv0JmEeynuYQ-346" value="" style="ellipse;whiteSpace=wrap;html=1;aspect=fixed;" vertex="1" parent="XQCfGJK_gv0JmEeynuYQ-101">
          <mxGeometry x="1215.5" y="1720" width="51" height="51" as="geometry" />
        </mxCell>
        <mxCell id="XQCfGJK_gv0JmEeynuYQ-347" value="" style="ellipse;whiteSpace=wrap;html=1;aspect=fixed;" vertex="1" parent="XQCfGJK_gv0JmEeynuYQ-101">
          <mxGeometry x="450" y="904.75" width="51" height="51" as="geometry" />
        </mxCell>
        <mxCell id="XQCfGJK_gv0JmEeynuYQ-362" style="edgeStyle=orthogonalEdgeStyle;rounded=0;orthogonalLoop=1;jettySize=auto;html=1;exitX=0;exitY=0.5;exitDx=0;exitDy=0;entryX=1;entryY=0.5;entryDx=0;entryDy=0;" edge="1" parent="XQCfGJK_gv0JmEeynuYQ-101" source="XQCfGJK_gv0JmEeynuYQ-351" target="XQCfGJK_gv0JmEeynuYQ-361">
          <mxGeometry relative="1" as="geometry" />
        </mxCell>
        <mxCell id="XQCfGJK_gv0JmEeynuYQ-351" value="&lt;b&gt;&lt;u&gt;INGRESA MERCANCIA(S) CON SUS CODIGOS DEL SAT&lt;/u&gt;&lt;/b&gt;" style="rounded=0;whiteSpace=wrap;html=1;fillColor=#cce5ff;strokeColor=#36393d;" vertex="1" parent="XQCfGJK_gv0JmEeynuYQ-101">
          <mxGeometry x="1161" y="1796.88" width="160" height="75" as="geometry" />
        </mxCell>
        <mxCell id="XQCfGJK_gv0JmEeynuYQ-354" style="edgeStyle=orthogonalEdgeStyle;rounded=0;orthogonalLoop=1;jettySize=auto;html=1;exitX=0.5;exitY=0.5;exitDx=0;exitDy=0;exitPerimeter=0;entryX=1;entryY=0.5;entryDx=0;entryDy=0;" edge="1" parent="XQCfGJK_gv0JmEeynuYQ-101" source="XQCfGJK_gv0JmEeynuYQ-352" target="XQCfGJK_gv0JmEeynuYQ-351">
          <mxGeometry relative="1" as="geometry" />
        </mxCell>
        <mxCell id="XQCfGJK_gv0JmEeynuYQ-352" value="" style="shape=umlActor;verticalLabelPosition=bottom;verticalAlign=top;html=1;outlineConnect=0;fillColor=#dae8fc;strokeColor=#6c8ebf;" vertex="1" parent="XQCfGJK_gv0JmEeynuYQ-101">
          <mxGeometry x="1363.5" y="1804.38" width="30" height="60" as="geometry" />
        </mxCell>
        <mxCell id="XQCfGJK_gv0JmEeynuYQ-353" style="edgeStyle=orthogonalEdgeStyle;rounded=0;orthogonalLoop=1;jettySize=auto;html=1;exitX=0;exitY=0.5;exitDx=0;exitDy=0;entryX=0.5;entryY=0.5;entryDx=0;entryDy=0;entryPerimeter=0;" edge="1" parent="XQCfGJK_gv0JmEeynuYQ-101" source="XQCfGJK_gv0JmEeynuYQ-247" target="XQCfGJK_gv0JmEeynuYQ-352">
          <mxGeometry relative="1" as="geometry" />
        </mxCell>
        <mxCell id="XQCfGJK_gv0JmEeynuYQ-358" style="edgeStyle=orthogonalEdgeStyle;rounded=1;orthogonalLoop=1;jettySize=auto;html=1;exitX=0.5;exitY=1;exitDx=0;exitDy=0;entryX=0.5;entryY=0;entryDx=0;entryDy=0;entryPerimeter=0;curved=0;" edge="1" parent="XQCfGJK_gv0JmEeynuYQ-101" source="XQCfGJK_gv0JmEeynuYQ-335" target="XQCfGJK_gv0JmEeynuYQ-352">
          <mxGeometry relative="1" as="geometry" />
        </mxCell>
        <mxCell id="XQCfGJK_gv0JmEeynuYQ-360" value="SI" style="edgeLabel;html=1;align=center;verticalAlign=middle;resizable=0;points=[];" vertex="1" connectable="0" parent="XQCfGJK_gv0JmEeynuYQ-358">
          <mxGeometry x="-0.0812" y="-3" relative="1" as="geometry">
            <mxPoint x="-1" y="-5" as="offset" />
          </mxGeometry>
        </mxCell>
        <mxCell id="XQCfGJK_gv0JmEeynuYQ-364" style="edgeStyle=orthogonalEdgeStyle;rounded=0;orthogonalLoop=1;jettySize=auto;html=1;exitX=0;exitY=0.5;exitDx=0;exitDy=0;entryX=1;entryY=0.5;entryDx=0;entryDy=0;" edge="1" parent="XQCfGJK_gv0JmEeynuYQ-101" source="XQCfGJK_gv0JmEeynuYQ-361" target="XQCfGJK_gv0JmEeynuYQ-363">
          <mxGeometry relative="1" as="geometry" />
        </mxCell>
        <mxCell id="XQCfGJK_gv0JmEeynuYQ-361" value="&lt;b&gt;&lt;u&gt;INGRESA INIDICACIONES DE ENTREGA&lt;/u&gt;&lt;/b&gt;" style="rounded=0;whiteSpace=wrap;html=1;fillColor=#cce5ff;strokeColor=#36393d;" vertex="1" parent="XQCfGJK_gv0JmEeynuYQ-101">
          <mxGeometry x="942.5" y="1796.88" width="160" height="75" as="geometry" />
        </mxCell>
        <mxCell id="XQCfGJK_gv0JmEeynuYQ-368" style="edgeStyle=orthogonalEdgeStyle;rounded=0;orthogonalLoop=1;jettySize=auto;html=1;exitX=0;exitY=0.5;exitDx=0;exitDy=0;entryX=1;entryY=0.5;entryDx=0;entryDy=0;" edge="1" parent="XQCfGJK_gv0JmEeynuYQ-101" source="XQCfGJK_gv0JmEeynuYQ-363" target="XQCfGJK_gv0JmEeynuYQ-365">
          <mxGeometry relative="1" as="geometry" />
        </mxCell>
        <mxCell id="XQCfGJK_gv0JmEeynuYQ-363" value="&lt;b&gt;&lt;u&gt;INGRESA RECINTO FISCAL DE CARGA&lt;/u&gt;&lt;/b&gt;" style="rounded=0;whiteSpace=wrap;html=1;fillColor=#cce5ff;strokeColor=#36393d;" vertex="1" parent="XQCfGJK_gv0JmEeynuYQ-101">
          <mxGeometry x="743" y="1796.88" width="160" height="75" as="geometry" />
        </mxCell>
        <mxCell id="XQCfGJK_gv0JmEeynuYQ-367" style="edgeStyle=orthogonalEdgeStyle;rounded=0;orthogonalLoop=1;jettySize=auto;html=1;exitX=0;exitY=0.5;exitDx=0;exitDy=0;entryX=1;entryY=0.5;entryDx=0;entryDy=0;" edge="1" parent="XQCfGJK_gv0JmEeynuYQ-101" source="XQCfGJK_gv0JmEeynuYQ-365" target="XQCfGJK_gv0JmEeynuYQ-366">
          <mxGeometry relative="1" as="geometry" />
        </mxCell>
        <mxCell id="XQCfGJK_gv0JmEeynuYQ-365" value="&lt;b&gt;&lt;u&gt;INGRESA FECHA Y HORA DE CITA&lt;/u&gt;&lt;/b&gt;" style="rounded=0;whiteSpace=wrap;html=1;fillColor=#cce5ff;strokeColor=#36393d;" vertex="1" parent="XQCfGJK_gv0JmEeynuYQ-101">
          <mxGeometry x="555" y="1796.88" width="160" height="75" as="geometry" />
        </mxCell>
        <mxCell id="XQCfGJK_gv0JmEeynuYQ-370" style="edgeStyle=orthogonalEdgeStyle;rounded=0;orthogonalLoop=1;jettySize=auto;html=1;exitX=0;exitY=0.5;exitDx=0;exitDy=0;entryX=1;entryY=0.5;entryDx=0;entryDy=0;" edge="1" parent="XQCfGJK_gv0JmEeynuYQ-101" source="XQCfGJK_gv0JmEeynuYQ-366" target="XQCfGJK_gv0JmEeynuYQ-369">
          <mxGeometry relative="1" as="geometry" />
        </mxCell>
        <mxCell id="XQCfGJK_gv0JmEeynuYQ-366" value="&lt;b&gt;&lt;u&gt;INGRESA FECHA Y HORA DE ENTREGA&lt;/u&gt;&lt;/b&gt;" style="rounded=0;whiteSpace=wrap;html=1;fillColor=#cce5ff;strokeColor=#36393d;" vertex="1" parent="XQCfGJK_gv0JmEeynuYQ-101">
          <mxGeometry x="350" y="1796.88" width="160" height="75" as="geometry" />
        </mxCell>
        <mxCell id="XQCfGJK_gv0JmEeynuYQ-372" style="edgeStyle=orthogonalEdgeStyle;rounded=0;orthogonalLoop=1;jettySize=auto;html=1;exitX=0.5;exitY=0;exitDx=0;exitDy=0;entryX=0.5;entryY=1;entryDx=0;entryDy=0;" edge="1" parent="XQCfGJK_gv0JmEeynuYQ-101" source="XQCfGJK_gv0JmEeynuYQ-369" target="XQCfGJK_gv0JmEeynuYQ-371">
          <mxGeometry relative="1" as="geometry" />
        </mxCell>
        <mxCell id="XQCfGJK_gv0JmEeynuYQ-369" value="&lt;u style=&quot;font-weight: bold;&quot;&gt;GUARDA&lt;/u&gt; Instrucción de Embarque" style="rounded=0;whiteSpace=wrap;html=1;fillColor=#cce5ff;strokeColor=#36393d;" vertex="1" parent="XQCfGJK_gv0JmEeynuYQ-101">
          <mxGeometry x="160" y="1796.88" width="160" height="75" as="geometry" />
        </mxCell>
        <mxCell id="XQCfGJK_gv0JmEeynuYQ-371" value="" style="ellipse;whiteSpace=wrap;html=1;aspect=fixed;fillColor=#f8cecc;strokeColor=#b85450;" vertex="1" parent="XQCfGJK_gv0JmEeynuYQ-101">
          <mxGeometry x="210" y="1708.75" width="60" height="60" as="geometry" />
        </mxCell>
        <mxCell id="XQCfGJK_gv0JmEeynuYQ-341" style="edgeStyle=orthogonalEdgeStyle;rounded=1;orthogonalLoop=1;jettySize=auto;html=1;exitX=0.5;exitY=0;exitDx=0;exitDy=0;exitPerimeter=0;entryX=1;entryY=0.5;entryDx=0;entryDy=0;curved=0;dashed=1;" edge="1" parent="1" source="XQCfGJK_gv0JmEeynuYQ-340" target="XQCfGJK_gv0JmEeynuYQ-206">
          <mxGeometry relative="1" as="geometry" />
        </mxCell>
        <mxCell id="XQCfGJK_gv0JmEeynuYQ-340" value="SISROD" style="shape=cylinder3;whiteSpace=wrap;html=1;boundedLbl=1;backgroundOutline=1;size=15;fillColor=#fff2cc;strokeColor=#d6b656;" vertex="1" parent="1">
          <mxGeometry x="2460" y="1540" width="60" height="80" as="geometry" />
        </mxCell>
        <mxCell id="XQCfGJK_gv0JmEeynuYQ-342" style="edgeStyle=orthogonalEdgeStyle;rounded=1;orthogonalLoop=1;jettySize=auto;html=1;exitX=1;exitY=0.5;exitDx=0;exitDy=0;entryX=0.5;entryY=1;entryDx=0;entryDy=0;entryPerimeter=0;curved=0;dashed=1;" edge="1" parent="1" source="XQCfGJK_gv0JmEeynuYQ-247" target="XQCfGJK_gv0JmEeynuYQ-340">
          <mxGeometry relative="1" as="geometry" />
        </mxCell>
      </root>
    </mxGraphModel>
  </diagram>
</mxfile>
